<?xml version="1.0" encoding="UTF-8" standalone="no"?>
<!-- Generator: Adobe Illustrator 17.1.0, SVG Export Plug-In . SVG Version: 6.00 Build 0)  -->

<svg
   xmlns:dc="http://purl.org/dc/elements/1.1/"
   xmlns:cc="http://creativecommons.org/ns#"
   xmlns:rdf="http://www.w3.org/1999/02/22-rdf-syntax-ns#"
   xmlns:svg="http://www.w3.org/2000/svg"
   xmlns="http://www.w3.org/2000/svg"
   xmlns:sodipodi="http://sodipodi.sourceforge.net/DTD/sodipodi-0.dtd"
   xmlns:inkscape="http://www.inkscape.org/namespaces/inkscape"
   version="1.1"
   id="Слой_1"
   x="0px"
   y="0px"
   viewBox="0 0 658.40623 749.99982"
   enable-background="new 0 0 658.4 750"
   xml:space="preserve"
   inkscape:version="0.91 r13725"
   sodipodi:docname="Flag-map_of_Bolivia.svg"
   width="658.40625"
   height="749.99982"><metadata
     id="metadata23"><rdf:RDF><cc:Work
         rdf:about=""><dc:format>image/svg+xml</dc:format><dc:type
           rdf:resource="http://purl.org/dc/dcmitype/StillImage" /><dc:title></dc:title></cc:Work></rdf:RDF></metadata><defs
     id="defs21"><defs
       id="defs5"><path
         d="m 133.2,744.8 c 0.4,-0.7 2.8,-5.2 3,-5.3 0.9,-0.8 2.4,-1.5 3.4,-2.1 0.8,-0.5 1.7,-1 2.5,-1.6 -0.1,-2 -0.4,-4.1 -0.6,-6.1 l 0.2,-0.2 c 0.9,-0.1 1.8,-0.1 2.7,-0.1 0.1,0 0.2,-0.1 0.2,-0.1 0.7,-0.7 1.4,-1.8 2.2,-2.5 0.1,0 7.2,-2.9 7.8,-3.1 0,-0.7 -0.1,-1.5 0.2,-2.1 0.4,-1 0.9,-2.1 1.2,-3.2 0.5,-1.7 0.7,-3.9 1,-5.7 0.8,-0.4 2.7,-1.7 3.5,-1.8 l 1.9,0.8 1,-1.5 c 2,-0.9 6.3,-1.8 8.4,-2.3 2.1,-0.6 4.3,-1.3 6.4,-1.6 0,0 0.6,-0.4 1,-1 0.4,-0.6 0.6,-0.9 1.2,-0.9 0.5,0 1.7,-0.8 1.3,-1.8 -0.4,-1 0,-2.5 0.1,-3.1 0.1,-0.6 0.7,-2.9 0.9,-3.9 0.2,-1.1 1.2,-3.5 1.3,-3.8 0.1,-0.3 0.2,-1.5 0.1,-2.2 -0.1,-0.7 -0.5,-1.8 -0.1,-2.1 l 1,-0.6 3.4,1.2 c 0.5,0.2 4.2,1.5 4.3,1.6 0.2,0.1 1.8,2 2.2,2.4 0.1,0.8 -0.4,1.7 -0.2,2.5 1.4,0.1 2.8,0.4 4.1,0.6 l 2.2,0.3 c 0.3,0 3.5,4.3 4,4.8 0.4,0.5 1.6,2.1 2,2.3 0.1,0.1 0.2,0.5 0.1,0.7 0.3,0 2.1,1.4 2.5,1.7 1.1,0.9 1.2,0.8 2.6,0 0.6,-0.4 1.8,1.1 3.3,0.7 l 2.6,-0.8 c 0.5,0 0.9,0.3 1.3,-0.3 l 0.6,-0.8 c 1.7,0.4 3.4,0.9 5.1,1.2 l 0.5,-0.4 c 6.3,0 12.6,-0.2 18.8,-0.3 2.4,0 5.1,-0.3 7.5,0 l 0.4,0.1 c 0,0 2.8,1.6 3.3,1.8 0.5,0.2 1.4,0.2 2.1,0 0.7,-0.2 3.3,1.6 3.7,1.9 0.4,0.3 2.8,1.6 3.4,2.1 0.6,0.4 2.4,0 2.9,-0.1 0.5,-0.1 1.6,-0.1 2,0.1 0.5,0.2 2.7,2.5 3.3,3.2 0.6,0.7 2.3,1.7 2.8,2.4 0.5,0.7 -0.5,1.1 -0.9,1.6 -0.4,0.5 -0.6,1 -0.5,1.2 0,0.2 0.1,2.1 1,2.9 0.9,0.8 1.4,1.4 0.9,2.2 -0.5,0.9 1,1.1 1.4,0.6 0.4,-0.4 0.9,-0.1 1.3,0.8 0.4,0.9 2,3.3 2,3.3 0,0 1.4,1 1.9,1.6 0.5,0.6 -0.1,1.8 -0.5,2.1 -0.4,0.4 -0.6,2.6 -0.9,3.1 -0.3,0.5 -0.4,0.8 0.6,1.6 1,0.9 1,1.1 1.3,2 0.3,0.9 0.9,1.5 2.3,1.6 1.5,0.1 1.2,2.9 0.8,3.6 -0.4,0.6 -0.2,1.4 0.7,1.7 0.9,0.3 0,0.7 0,1.3 0,0.6 0.2,1.5 0.2,1.5 0,0 1.1,-0.1 1.7,-0.4 0.6,-0.3 0.7,-2.1 0.8,-2.8 0.1,-0.7 0.9,-2 1,-2.7 0.1,-0.7 0,-4.1 0,-5.1 0,-0.9 0.4,-2.1 0.9,-2.4 0.6,-0.3 0.8,-0.2 0.1,-1.8 -0.7,-1.6 0.8,-2.6 1.5,-3.4 0.7,-0.7 1,-2.7 1.8,-3.1 0.9,-0.4 1.3,-2.1 1.7,-2.7 0.4,-0.6 0.6,-1.6 1.3,-1.9 0.6,-0.3 0.8,-0.9 0.9,-1.5 0.1,-0.6 1.4,-4.5 1.7,-5.5 0.3,-1 1.1,-1.9 1.5,-2 0.4,-0.1 1.1,-0.2 1.1,-0.7 0,-0.5 0.3,-2.2 0.6,-3.2 0.4,-1 1.1,-2.5 1.7,-3.5 0.5,-1 0.5,-1.6 1.4,-1.8 0.9,-0.2 0.6,-0.9 0.7,-1.5 0.1,-0.6 0.8,-3.1 0.8,-3.1 12.8,0.1 25.7,0 38.5,0.1 4.5,0 8.9,0 13.4,0 3,0 6.1,0.2 9,0 0.1,0.6 -0.3,1.2 -0.1,1.8 0.3,0.8 0.9,1.5 0.7,2.4 -0.1,0.7 -1.2,1.7 -1,2.3 0.8,1 0.6,2.4 1.7,3.1 l 1.5,-0.5 c 0.9,0 1.7,1.8 2.1,2.5 0.3,0.1 1.2,0 1.6,0 0.7,0.7 1.1,2.6 2.1,2.6 l 0.1,-0.4 c 1.7,-5.6 3,-11.2 4.8,-16.8 1.2,-3.9 2.4,-7.9 3.5,-11.8 1.2,-4.1 7.6,-23 9.4,-28.3 0,0 3.1,-9.2 3.3,-10.2 0.2,-1 0,-2.7 0,-3.8 -0.2,-8.1 -0.3,-16.2 -0.6,-24.3 4.3,-6.2 8.5,-12.4 12.8,-18.6 1.9,-2.7 4.2,-5.2 5.7,-8.1 0.8,-1.4 2.9,-6.5 3.3,-7.5 0.8,-1.9 4.7,-14.6 6.5,-18.7 0,-0.1 0.5,-0.4 0.6,-0.4 0.9,0 1.5,0.4 2.5,0.2 0,0 22.2,-3.8 22.6,-3.9 1.4,-0.3 26.9,-4.6 26.9,-4.6 3.1,-0.5 6.2,-1 9.3,-1.6 2.4,-0.5 23.3,-6.4 23.3,-6.4 0.2,0 9.9,-2.8 10,-2.8 15.6,1.1 31.1,2.1 46.7,3 0.2,0 2.3,0.9 3.1,1.3 2.3,1 4.5,2.3 6.7,3.5 3.2,1.7 14,7 16,8.3 l 0.1,0 c 1.7,0.6 6.8,3.4 7.7,3.8 0.9,0.4 5,2.2 6.1,2.8 3.2,1.9 6.5,3.5 9.8,5.3 0.9,0.5 2.3,2.1 2.4,3.3 -2.1,-0.3 -1.8,1.6 -2.4,2.2 0.2,0.3 0.3,0.9 0.2,1.3 0.3,0.4 -0.2,3.2 -0.2,3.2 1.2,0.2 1.2,1.5 1.5,2.5 -0.5,1 0.7,2.6 0.7,2.6 l 0.1,1 c 0.6,0.5 0.5,1.4 1.1,2 0,2.2 -0.9,1.4 -1.7,2.7 l 0.3,0.4 c 0,0 1.9,-0.6 2.4,-1.2 1.5,-1.4 1.4,-2.3 3.7,-2.2 0.5,-0.5 0.6,-1 0.7,-1.2 0.6,-0.7 1.2,-1.4 2.1,-1.5 0.4,-0.1 0.7,0.1 1.1,0 0.9,-0.4 0.6,-1.4 1,-1.6 1.1,-0.6 1.7,0 2.5,0.5 0,0 0,-0.7 0.4,-1.3 0.4,-0.5 1.8,-1.4 1.8,-2 l 0,-0.1 c -0.3,-1 -5.1,-4 -6.3,-4.9 -1.6,-1.3 -2.9,-2.8 -4.7,-4 -0.5,-0.3 -3.5,-2.7 -3.2,-3.4 1.2,-3 2.7,-5.8 4.1,-8.8 l 9,-19.5 c 1.7,-3.8 3.5,-7.5 5.3,-11.3 0.3,-0.6 0.4,-1.2 0.9,-1.6 0.2,0.1 0.4,0.1 0.6,0.3 0.6,-0.2 1.8,-0.1 2.4,0.2 0.3,0 0.6,-0.3 0.7,-0.5 0,-0.6 0.2,-1.2 0.2,-1.8 0,-0.6 -0.4,-1 -0.5,-1.6 -0.1,-0.7 0,-3.3 -0.5,-3.6 -0.6,-0.3 -2.3,0.2 -2.4,-0.4 1.9,-7.1 4.2,-14 6.3,-21 1.1,-3.5 1.8,-7.2 3.1,-10.6 0,-0.1 0.5,-0.5 0.5,-0.6 0.5,-0.7 0.8,-2.6 0.8,-2.6 1.2,-3.6 1.4,-2.5 5.2,-3.3 0.2,-0.1 0.5,0 0.7,0 0,0 -1.2,-1.8 -1.5,-1.9 -0.5,-0.1 -0.7,0 -1.1,-0.3 -0.5,-0.5 -3.4,-2.9 -3.6,-3.7 -0.4,-1.6 -0.8,-3.1 -1.4,-4.6 -0.7,-1.7 -1.7,-3.1 -2.6,-4.7 -1,-1.9 -2,-3.9 -3,-5.8 -0.2,-0.4 -0.4,-1.1 -0.6,-1.5 l 0.2,-0.1 1.2,-0.2 c 0,0 0.1,-1.6 -1,-2.4 -1.1,-0.7 -0.4,-2 -0.4,-3 -0.1,-0.9 -1.6,-2 -2.6,-3.2 -1,-1.2 -1,-2.5 -0.8,-3 0.1,-0.5 -0.1,-2.9 -0.1,-3.2 0,-0.4 0,-1.6 -0.5,-1.8 -0.5,-0.2 -0.5,-1.2 -2.1,-2.5 -1.6,-1.3 -4,-1.8 -4,-1.8 0,0 -2.8,1.9 -4.1,2.9 -1.3,1 -2.5,-0.7 -2.5,-0.7 0,0 -0.7,-2.2 -2.2,-2.4 -1.5,-0.2 -2.2,0.4 -2.9,-1.5 -0.7,-1.9 -2.1,-2.1 -2.5,-2.5 -0.4,-0.5 -2.1,-1.2 -3.5,-1.2 -1.4,0 -2.1,-1.8 -2.3,-2.4 -0.2,-0.6 -1.9,-2.9 -3.3,-4.3 -1.4,-1.5 -1.7,-2 -2.8,-2.6 -1,-0.5 -0.4,-2 0.2,-3.3 0.6,-1.4 -1,-1.4 -2,-1.1 -1,0.3 -0.2,-2.6 0.3,-4.6 0.5,-2 -1.3,-2.7 -1.6,-3.1 -0.3,-0.4 -1.5,-1.9 -1.3,-3.6 0.1,-1.7 0,-3.5 -0.1,-4.5 -0.1,-1 0.1,-4.2 0,-5.9 -0.2,-1.7 0.9,-5.6 1.6,-6.6 0.7,-1 3.5,-3.8 3.9,-4.1 0.4,-0.3 1.4,-0.3 1.8,-2.1 0.4,-1.8 -0.5,-2.5 -0.9,-3.4 -0.5,-0.9 0.1,-1.6 0.6,-2.2 0.5,-0.6 1.2,-2.1 1.2,-3.3 0,-1.2 0.5,-4.9 0.5,-4.9 l -4.4,-0.1 -0.1,1.3 c -0.6,0.8 -1.8,1.8 -2.8,1.9 -2,0.2 -6.7,-0.4 -8.8,-0.5 -1.1,-0.1 -5.7,-0.2 -6.4,-0.2 -0.9,-0.1 -4,-0.2 -4.7,-0.2 l -22.2,-1 c -0.6,0 -1.2,0.1 -1.9,0 -1.6,-0.2 -3,-0.4 -4.6,-0.5 -0.2,0 -2.7,0 -3.8,0 -6.6,-0.3 -13.3,-0.3 -19.9,-0.3 0,0 -19.7,-0.4 -20.9,-0.6 0,0 -0.7,-10.4 -1.1,-15 -0.2,-1.9 -0.5,-3.7 -0.7,-5.6 -0.7,-8 -1.1,-16.1 -1.6,-24.1 -2.2,-2.6 -17.4,-20.1 -17.8,-21.1 l 16.9,-0.2 c -0.3,-9 -0.2,-18 -0.2,-27 0,0 -3.2,-2.3 -3.9,-3.2 -0.7,-0.9 -0.4,-1.8 -0.4,-2.5 0,-0.7 -0.7,-2.8 -1.1,-3.4 -0.4,-0.6 -1.5,-1.7 -1.5,-1.7 0,0 -1.3,-0.7 -0.6,-2.1 0.6,-1.4 0.2,-1.9 -0.2,-2.4 -0.4,-0.4 -2.5,-3.5 -2.6,-3.9 -0.1,-0.4 -0.1,-1.4 -0.1,-1.9 0.1,-0.5 0.2,-2.1 -0.8,-3.1 -1,-1 -0.9,-1.1 -0.6,-1.9 0.3,-0.8 0.3,-2.8 0.3,-2.8 0,0 -0.2,-1.7 0.6,-1.5 0.8,0.2 1.1,-0.6 2.6,-1.9 1.5,-1.3 1.5,-3.2 1.2,-4.3 -0.3,-1.1 -1,-1.5 -1.4,-1.9 -0.4,-0.5 -1.4,-0.5 -1.5,-1.6 -0.1,-1.1 0.2,-1.5 -0.5,-2 -0.7,-0.5 -0.9,-1.9 -0.5,-2.5 0.5,-0.7 -0.2,-2.6 -1.5,-2.3 -1.4,0.3 -2.1,0.7 -2.6,-0.1 -0.5,-0.8 -2.5,-1.3 -3.1,-2.2 -0.6,-0.9 -1.7,-1.2 -2.3,-0.9 -0.6,0.3 -1.6,0.7 -2.3,-0.1 -0.7,-0.9 -2.4,-1.8 -2.7,-2 -0.3,-0.2 -2.1,-0.7 -2.6,-0.8 -0.5,-0.1 -1.8,-1.5 -2.7,-1.6 -0.9,-0.1 -1.9,-1.9 -2.9,-1.9 -0.9,-0.1 -1.8,-0.9 -2.7,-1.6 -0.9,-0.8 -1.1,-1.4 -1.2,-1.9 -0.1,-0.5 -0.9,-1.3 -1.8,-1.4 -0.9,-0.1 -1.5,0 -2.1,0.1 -0.6,0.1 -1.1,0 -1,-0.7 0.2,-0.8 0.5,-1.8 0.5,-2.2 0,-0.4 0.4,-0.6 -1,-1.2 -1.4,-0.6 -1.6,-0.3 -1.6,0.3 0,0.6 -0.2,1 -1,0.5 -0.8,-0.5 -1.1,-0.4 -1.5,0.4 -0.4,0.9 -0.2,2.2 -1.4,1.8 -1.3,-0.4 -2.9,-1.2 -3.1,-0.4 -0.2,0.8 -1.6,1 -2.4,0.1 -0.8,-0.9 -1.6,-1.6 -1.9,-1.2 -0.3,0.4 -0.9,-0.1 -1.4,-0.6 -0.5,-0.6 -0.5,0 -1.2,0.2 -0.7,0.2 -0.8,0.8 -1.8,1.1 -1,0.3 -2.9,1.4 -3.3,1.5 -0.4,0.1 -2.3,0.9 -2.6,1 -0.3,0.1 -1.1,0 -1.9,-0.5 -0.7,-0.5 -1.9,-0.6 -2,-1 -0.1,-0.3 -0.6,-2 -2,-1.4 -1.4,0.6 -2.2,0.7 -2.9,0.5 -0.7,-0.2 -1.4,0.1 -1.9,0.3 -0.5,0.2 -1.9,0.4 -2.1,0.7 -0.3,0.3 -1.2,1.1 -1.7,0.4 -0.4,-0.7 -1.5,-0.7 -2.1,-0.2 -0.6,0.5 -1.2,0.6 -1.9,0.1 -0.7,-0.5 -1.5,-1.5 -1.6,-2.5 -0.1,-1 0.1,-2.8 -1.4,-2.9 -1.4,-0.1 -2,-1.1 -2.4,-1.8 -0.4,-0.7 -1.4,-1.4 -2,-1.8 -0.6,-0.4 -1.4,-0.8 -1.7,-0.9 -0.3,-0.1 -1.1,-0.3 -1.1,-1 0,-0.7 -1.1,-1.1 -1.4,-1.5 -0.3,-0.4 -1.3,-2.4 -2.3,-2.6 -1,-0.2 -1.6,-1.1 -1.3,-2.2 0.3,-1.1 0.2,-3 0.1,-3.5 -0.1,-0.5 -0.1,-1.1 -0.8,-1.4 -0.6,-0.2 -1.2,-0.4 -1.4,-0.9 -0.2,-0.4 -0.6,-1.3 -1.1,-1.1 -0.5,0.2 -2.3,0.1 -2.8,0.2 -0.5,0.1 -1.3,0.7 -1.8,1.1 -0.5,0.4 -0.8,1.7 -1.6,0.9 -0.8,-0.8 -1.4,-1.1 -2.1,-0.8 -0.6,0.2 -1.9,0.4 -2.2,0.4 -0.4,0 -1,-0.1 -1.6,-0.4 -0.6,-0.3 -1.7,-0.9 -2.1,-1.4 -0.4,-0.6 -1.3,-1.7 -1.6,-1.9 -0.3,-0.2 -1.1,-0.4 -1.7,-0.3 -0.6,0.1 -2.7,0 -3.2,0 -0.5,0 -1.4,-0.5 -1.7,-0.7 -0.4,-0.2 -1.4,-0.6 -2.1,-0.7 -0.6,-0.1 -1.5,-0.4 -1.1,-1 0.4,-0.6 0.6,-1.2 -0.1,-1.8 -0.7,-0.6 -1.6,-1.8 -2.5,-1.4 -0.9,0.4 -1.3,0.9 -1.8,0.9 -0.5,0.1 -0.6,0.4 -1.3,0.1 -0.7,-0.3 -1.1,0.1 -0.9,0.6 0.2,0.5 0.1,1.2 -0.9,0.7 -1,-0.5 -1.6,-1.2 -2.1,-2.4 -0.5,-1.1 -1.7,-2.2 -2.6,-2.6 -0.9,-0.4 -2,-2.6 -2.2,-2.9 -0.2,-0.3 -0.9,-1.5 -1.5,-1.1 -0.6,0.4 -1.5,0.1 -2.1,-0.3 -0.6,-0.4 -1.3,0 -1.8,-0.8 -0.5,-0.8 -0.9,-3.5 -1.9,-4.1 -1,-0.6 -1.4,-1.1 -0.9,-1.6 0.4,-0.4 0.7,-0.9 0.3,-1.4 -0.4,-0.5 -0.9,-1.8 -1,-2.4 -0.1,-0.6 -0.4,-1.2 -1.1,-1.3 -0.7,-0.1 -2.2,-0.7 -2.9,-0.3 -0.6,0.4 -0.6,0.7 -1.4,0.6 -0.7,-0.1 -0.8,0.2 -1.1,0.6 -0.3,0.4 -0.3,0.9 -1.1,0.9 -0.9,0 -1.4,0.1 -1.6,0.8 -0.2,0.7 -0.6,1.4 -1.7,1.1 -1.1,-0.3 -3.5,-0.4 -3.8,-0.7 -0.3,-0.3 -1.1,-1.4 -1.9,-1.4 -0.8,0 -2.5,-0.9 -2.9,-1.9 -0.4,-1 -0.8,-1.6 -1.1,-1.7 -0.4,-0.1 -0.6,-0.6 -0.7,-1.4 -0.1,-0.8 -0.5,-1.9 -1.4,-1.9 -0.9,0 -2.4,-0.4 -2.6,-0.4 -0.2,0 -1.1,-0.6 -1.6,-1.3 -0.6,-0.7 -1.4,-1.5 -2.2,-1.6 -0.8,-0.1 -1,-0.1 -1.7,-0.7 -0.7,-0.6 -2.2,-1.1 -2.9,-1.4 -0.7,-0.3 -4.2,-0.4 -4.6,-0.4 -0.4,0 -0.8,-0.1 -1.4,0.3 -0.6,0.4 -1.1,0.9 -2.2,0.5 -1.1,-0.4 -1.8,-0.1 -1.6,0.4 0.2,0.5 0.3,1.3 -0.1,1.6 -0.4,0.3 -1.4,2.1 -2.3,2.6 -0.9,0.5 -1.5,0.2 -2.1,-0.5 -0.6,-0.7 -1,-0.4 -1.7,-0.3 -0.7,0.1 -1.5,0.1 -2.1,-0.6 -0.6,-0.7 -1.5,-1.3 -2.2,-1.3 -0.7,0 -1.4,0.6 -1.9,0.7 -0.4,0.1 -0.4,-0.7 -0.9,-1.2 -0.4,-0.5 -0.6,0.1 -0.8,0.7 -0.2,0.6 -1,2.1 -1.8,0.4 -0.8,-1.7 -1.4,-2 -1.9,-2.1 -0.5,-0.1 -1.5,-0.6 -2.3,0.4 -0.8,0.9 -2,2.1 -2.2,0.9 -0.2,-1.1 -0.6,-1.9 -1.6,-1.9 -1,0 -3.4,0.3 -4.6,-1.1 -1.2,-1.4 -2.6,-3.6 -3.8,-4.1 -1.2,-0.5 -1.6,-1 -1,-1.6 0.6,-0.6 1.4,-3.1 1.2,-4.1 -0.2,-1 -0.4,-3.1 -1.4,-2.6 -1,0.5 -1.9,0.4 -2.6,0 -0.8,-0.4 -1.7,-0.8 -2.4,-0.8 -0.7,0 -1.6,-0.5 -2.7,-1.2 -1.1,-0.7 -1.9,-2.2 -1.9,-3 0.1,-0.8 0.4,-2.5 -0.7,-2.5 -1.1,0 -0.9,0.9 -0.9,1.6 0,0.6 -0.3,2.4 -0.9,2.1 -0.6,-0.4 -0.8,-1.6 -1.1,-2.1 -0.3,-0.4 -1.4,-2.4 -1.7,-3.1 -0.3,-0.6 -1.1,-2.5 -2.5,-2.5 -1.4,0 -4.5,-1.4 -5.9,-1.2 -1.4,0.2 -3.9,0.7 -3.9,-1.9 0,-2.6 -0.1,-3.3 -0.9,-4.1 -0.7,-0.8 -0.9,-1.9 -0.9,-3.1 -0.1,-1.2 -0.4,-5.6 -1.6,-5.7 -1.2,-0.1 -1.6,0.1 -1.8,-1 -0.2,-1.1 -0.2,-1.9 -1,-1.4 -0.8,0.5 -1.1,2.1 -1.1,2.9 -0.1,0.7 0.6,2.1 -2,0.9 -2.6,-1.2 -1.6,-2.2 -1.1,-3.1 0.5,-0.9 1.1,-2.3 1.1,-2.8 0,-0.5 1.6,-2.4 0,-2.8 -1.6,-0.4 -2,-1.2 -1.9,-2.4 0.1,-1.2 0.4,-4.4 -2,-3.6 -2.4,0.8 -3.1,-0.3 -3.4,-1.2 -0.3,-0.9 -2.1,-5.7 -1.5,-6.3 0.6,-0.6 1.4,-1.1 1.1,-2 -0.3,-0.9 -1.4,-0.6 -2.3,-1.6 -0.9,-1 -1.6,-2.2 -0.7,-2.9 0.9,-0.7 1.1,-1.2 0,-2.4 -1.1,-1.2 -1.4,-3.4 -0.1,-4.1 1.4,-0.8 3.5,-1.9 2.6,-3.7 -0.9,-1.8 -0.9,-2.6 0.4,-3.5 1.3,-0.9 2,-1.6 1.1,-2.6 -0.9,-1.1 -0.9,-1.4 -0.7,-2.5 0.2,-1.1 0.1,-3.4 -1.5,-4.6 -1.6,-1.2 -3.6,-1.1 -2.7,-2.8 0.9,-1.6 0.9,-4.1 0.9,-5.1 0,-1 0,-2.2 -0.8,-2.6 -0.8,-0.4 -2.7,-0.9 -1.9,-2.2 0.8,-1.3 0.4,-2.9 0.1,-3.6 -0.3,-0.7 -0.5,-1.9 -0.3,-2.4 0.2,-0.5 -0.7,-2 0.4,-2.8 1.1,-0.8 1.6,-1.6 1.7,-2.6 0.1,-1 0,-1.9 0,-1.9 0,0 1.1,-2.9 2.3,-3.6 1.2,-0.7 2,-1.4 2.1,-2.2 0.1,-0.8 1.4,-3.1 1,-4.6 -0.4,-1.6 -0.4,-3 -0.4,-4 0,-1 -0.6,-2.8 -1.1,-3.5 -0.5,-0.7 -0.9,-2.1 -0.6,-2.9 0.4,-0.9 0.4,-1.9 0.1,-2.9 -0.2,-1 -1.1,-2.7 0.4,-4.3 1.4,-1.6 1.7,-2.4 0.8,-3.3 -0.9,-0.9 -1.6,-2.8 -1.9,-3.4 -0.2,-0.6 -1.3,-2.1 -1.4,-2.9 -0.1,-0.8 -0.9,-1.5 -1.9,-1.9 -1,-0.4 -1.9,-1 -2.6,-0.2 -0.7,0.8 -0.9,1.3 -1.5,1.4 -0.6,0.1 -1.4,0.6 -1.7,1.6 -0.3,1.1 0.4,3.1 -0.9,3.1 -1.2,0.1 -1.9,0.1 -2.1,0.7 -0.2,0.6 -0.1,1.3 -0.9,1.3 -0.9,0 -2.2,-0.4 -2.6,-0.5 C 217.1,8.3 216.9,7 215.9,6.4 215,5.8 214.6,6 214.1,6.6 213.6,7.2 212,7.2 212.7,6 c 0.7,-1.1 1.2,-2.1 0.3,-2 -0.9,0.1 -1.5,1.1 -2.3,1 -0.8,-0.1 -1.5,-0.4 -2.2,-0.6 -0.7,-0.1 -1.3,-0.4 -2,0.5 -0.7,0.9 -2.5,2.5 -2.6,1.1 -0.1,-1.4 -0.1,-1.7 -1.6,-1.1 -1.4,0.6 -3.1,0.6 -3.6,1.2 -0.4,0.6 -2.9,1.9 -3.7,0.7 -0.9,-1.1 -1.1,-1.6 -2.3,-1.1 -1.1,0.5 -2.6,0.6 -3.4,0.6 -0.9,-0.1 -2.1,0.1 -2.4,0.9 -0.3,0.8 -0.4,1.4 -2,1.1 -1.6,-0.3 -2.7,0.1 -3.4,0.5 -0.6,0.4 -1.3,-0.2 -2.1,0.1 -0.9,0.3 -0.8,0.9 -1.9,1.3 -1.1,0.4 -1.9,0.5 -2.2,0.9 -0.3,0.4 -1.1,1.9 -1.6,0.9 -0.4,-0.9 -0.6,-1.2 -2.2,-0.9 -1.6,0.3 -3.8,0.4 -4.4,0.7 -0.6,0.3 -1.4,1 -2.7,0.6 -1.4,-0.4 -1.3,0.7 -1.3,1.3 0,0.6 -0.6,1.1 -1.4,1.5 -0.8,0.4 -3.6,1.7 -4,2 -0.4,0.3 -4.2,2.6 -5,3.4 -0.8,0.9 -1.8,2.7 -2.6,2.5 -0.9,-0.2 -1.1,0.1 -1.6,0.7 -0.6,0.6 -2.2,2.2 -2.6,2.7 -0.4,0.5 -0.8,1.6 -1.8,1.8 -1,0.2 -1.7,1.2 -1.7,1.9 0,0.7 0.1,1.6 -0.9,2.1 -0.9,0.6 -2.5,2.1 -3.6,1.9 -1.1,-0.2 -3.1,0.4 -2.6,1.1 0.5,0.7 -0.1,1 -0.8,1.4 -0.7,0.4 -1.1,1.3 -2.4,0.4 -1.2,-0.9 -1.5,-1.1 -2.2,-0.9 -0.7,0.3 -1.5,0.1 -2.6,-0.1 -1.1,-0.1 -1.9,-0.1 -1.8,1.3 0.1,1.4 0.1,2.1 -1.6,2 -1.7,-0.1 -2.9,-0.8 -3.6,-0.1 -0.7,0.7 -0.6,1.1 -0.3,1.8 0.3,0.7 -0.3,1.7 -1,2.2 -0.7,0.5 -3.1,2.1 -4,2.3 -0.9,0.2 -3.1,1.2 -3.6,1.6 -0.4,0.4 -1.4,2.5 -1.8,3.3 -0.4,0.8 -1.1,1.7 -1.6,2.1 -0.5,0.4 -2.1,1.1 -2.2,1.6 -0.1,0.4 -1.1,3.1 -1.4,3.6 -0.3,0.5 -0.8,1.4 -1.9,0.5 -1.1,-0.9 -3,-2.6 -4.1,-2.7 -1.1,-0.1 -5.8,-0.2 -6.3,-0.1 -0.5,0.1 -1.4,0.3 -2.4,0.1 -1,-0.2 -1.6,-0.2 -2.1,0.1 -0.6,0.4 -4.4,2.9 -4.6,3.1 -0.3,0.2 -0.4,0.9 -0.4,1.4 0,0.5 0.1,1.1 -0.5,1.7 -0.6,0.6 -2.9,3.4 -3.3,3.9 -0.4,0.4 -1.4,2.8 -1.7,3.4 -0.4,0.6 -1.1,2.2 -1.5,2.6 -0.4,0.4 -1.9,2.4 -2.6,2.6 -0.6,0.1 -2.3,1.7 -3,1.2 -0.7,-0.5 -2.6,0.1 -3,0.9 -0.4,0.8 -0.7,0.8 -1.9,0.6 -1.2,-0.1 -2.9,-0.1 -3.6,0.4 -0.7,0.5 -2.1,1.9 -2.4,2.1 -0.2,0.3 -1.7,1.7 -2.6,1.8 -0.9,0.1 -6.4,1.6 -8.1,1.5 -1.7,-0.1 -1.8,-0.2 -1.3,-1.1 0.5,-0.9 0.5,-2 0.3,-2.6 -0.2,-0.6 -0.2,-1.6 0.4,-2.6 0.6,-0.9 0.9,-1.6 -0.2,-1.9 -1.1,-0.3 -2,-0.6 -3.1,0.2 -1.1,0.9 -1.8,1.4 -3.1,0.9 -1.3,-0.4 -3.7,-1.4 -4.2,-1.1 -0.5,0.3 -2.1,0.4 -3.3,-0.4 -1.2,-0.8 -3.1,-0.9 -4.3,-0.8 -1.2,0.1 -2.9,-0.3 -4.7,-0.9 C 23.1,72 20.8,72.1 20,72.2 19.2,72.3 16.8,71.8 16.1,71.6 15.5,71.5 14.2,70.8 13,71.3 c -1.2,0.5 -2.7,0.6 -3.3,0.6 -0.6,0 -2.3,0 -2.8,0.2 -0.5,0.1 -0.4,0.3 -1,0 -0.6,-0.2 -1.8,0 -1.8,0 7.2,12.2 14.6,24.4 21.8,36.6 2.4,4.1 5,8.1 7.3,12.2 0.6,1 1,2.1 1.5,3.1 1.2,2.4 2.8,4.6 4.1,6.9 0.5,0.9 0.8,1.8 1.2,2.7 0.6,1.4 1.5,2.8 2.1,4.2 1.4,2.9 7.9,17.4 10,21.7 0,0 -0.1,1.1 0.1,1.3 l -0.9,0.3 c -0.2,0.1 -1.1,2.4 -1.4,2.6 -1,0.9 -1.5,0.4 -2.2,1.9 -0.4,0.7 -0.5,1.5 -0.6,2.2 0,0 1,0 1.2,-0.1 l 1.2,1.6 c -0.2,0.5 -0.5,1.8 -0.5,1.8 0,0 -0.6,0.8 -0.7,1 0,0 -2.4,0 -2.7,0.4 -0.9,-0.1 -2.6,0 -2.7,0 0,0 0.3,1.4 0.2,1.4 -0.3,0.1 -1.1,-0.2 -1.5,-0.2 -0.2,0.1 -0.8,1.6 -1,2.6 l -1.2,-0.1 c 0,0 -1,2 -0.9,2.7 -0.2,0.4 -1.1,0.9 -1.5,0.6 0,0 -0.1,3.5 -0.4,3.9 -0.3,0.4 -0.1,1.2 0.3,1.6 0.4,0.4 0.5,0.8 0.3,1.1 -0.2,0.4 -0.4,1.4 -0.5,2.2 -0.1,0.8 0.8,0.9 1.1,1.5 0.4,0.6 0,2 -0.2,2.4 -0.2,0.4 -0.4,0.7 -0.2,1.3 0.2,0.6 -0.4,2.6 -0.4,2.6 0,0 0.4,0.1 0.6,0.4 0.1,0.4 0,1.7 -0.4,2.4 -0.4,0.6 0.1,0.8 0.7,1.3 0.6,0.5 0.2,1.3 -0.1,2 -0.3,0.7 0,1.7 0.1,2.3 0.1,0.6 0.4,1.2 -0.1,1.6 -0.5,0.4 -0.3,0.8 0.1,1.5 0.4,0.7 -0.1,1.4 -0.4,1.7 -0.4,0.4 0,1.5 0.2,1.9 0.2,0.4 0.1,1.4 -0.1,2.1 -0.2,0.6 0.4,2.2 0.4,2.2 -0.2,1 -0.4,2.1 -1.1,2.8 l 0.1,0.5 c -0.7,1.7 -0.5,2.3 -2.1,3 l -0.4,0.8 c 0.2,0.4 0.2,0.6 0.3,1 0.1,0 0,1.4 0,1.4 -1,-0.4 -3.9,-0.4 -3.9,-0.4 -0.1,0.5 0,0.8 -0.1,1.2 0.2,0.4 1.4,2.9 1.6,3 1.3,0.6 2.7,1.2 3.2,2.7 0,0 -0.7,1.7 -0.7,1.8 0.3,0.8 0.6,2.1 1.1,2.8 0.3,0.5 0.9,0.8 1,1.4 0.2,0.8 -0.7,1.7 -0.5,2.5 0.1,0.4 0.4,0.8 0.4,1.1 0.3,1.3 -1,2.2 0.4,3.4 1,0.9 2,1.7 3,2.6 0,0 1.5,3.7 2.3,4.3 l 0,2.2 c 0,1.2 1.3,1.6 0.8,2.8 -0.2,0.3 -0.6,0.6 -0.9,0.6 -2.3,0.1 -4.1,0.1 -6.3,0.7 0,0 -0.3,0.2 -0.3,0.3 -0.3,0.6 -0.9,2.9 -0.8,3.6 0.1,0.8 0.2,1.7 0.3,2.4 0.2,0.7 1,1.7 0.6,2.5 0,0 -1.6,1.4 -1.9,1.6 -0.8,0.5 -1.7,0.6 -2.5,1 -1.1,0.6 -2.1,3.8 -4.6,3.9 l -0.3,0.3 c 0,0 0.3,4 0.3,4.1 0,0 -2.7,-0.1 -3.1,-0.2 -1.8,-0.3 -1.8,2.3 -1.9,3.4 -0.1,0.9 -0.3,1.7 -0.3,2.7 0,0.5 0.3,1.1 0.4,1.6 0.2,0.6 0.1,2.6 -0.8,2.7 -1.3,0.3 -2.7,0.5 -3.9,1.1 -0.6,0.3 -1.3,0.6 -1.7,1 -0.9,0.7 -0.1,0.9 0,1.8 0,0.6 -0.2,1.3 -0.2,1.9 0,1 1.2,1.1 0.6,2.5 -0.4,1 -1.7,2.2 -1.3,3.4 0.5,1.6 1.5,2 2.3,3.4 0.2,0.4 0.2,1.1 0.5,1.5 0.2,0.3 1.4,2.2 1.8,2.9 0.8,1.4 4.1,2.5 5.3,3.6 0.1,0.2 0.7,0.9 1,1.2 0.5,0.5 0.7,1.5 1.3,1.9 0.4,0.3 0.9,0.2 1.1,0.8 -0.1,0.4 0,1 0.2,1.4 -0.7,1.3 -1.7,0.9 -3,0.3 0,0 -1.2,1.4 -1.3,1.7 -0.1,0.3 -1.4,1.9 -1.4,1.9 -0.4,0.6 -2.5,-0.5 -1.8,2.2 l -0.9,0.1 c 0,0 0.2,2 0.5,2.9 l -1.3,0.1 c -0.6,0.4 -2.2,2.6 -2.1,3.2 0,0.1 0.1,0.6 0.1,0.7 0,0.3 -3.7,6.7 -4.2,7.5 2.5,7.1 5.2,14.3 7.3,21.5 0.1,0.3 2,7.9 2.3,8.1 l 2.4,1.4 c 1.3,0.7 3.7,2.5 4.9,2.9 0.2,0.1 1.1,0 1.3,-0.1 0.5,-0.2 1.6,-0.9 1.7,-0.9 0,0 1.3,0.7 1.9,0.8 0,0 1.7,-1.7 2.6,-1.6 1.9,1.2 2.1,2.2 3.5,3.5 1.1,1 2.4,1.7 3.5,2.8 l 0.9,0.9 c 0.1,0.2 0.1,1.5 0,1.6 -2.9,1.8 -6,3.3 -8.9,5.1 -0.1,0.1 -0.2,0.3 -0.2,0.5 -0.8,2.3 -1.4,4.6 -2.4,6.8 -0.1,0.2 0,0.8 0.2,1 -0.3,1.3 1.3,3.6 1.7,4.6 l -1.1,0.9 c -0.2,0.2 -2,0.8 -2.3,0.9 l -3,1.6 c -0.5,-0.2 -1.7,0.2 -2.2,0.3 -1.5,0.3 -0.9,2.9 -1.4,3.9 -1.3,0.9 -1.1,1.8 -2,2.6 -2.2,2.1 -3.2,3 -5.2,5.5 -0.1,0.1 -0.2,0.4 -0.2,0.5 0.2,0.2 0.5,0.6 0.4,0.9 -0.8,1.1 -1.2,1.6 -2.6,1.5 -0.7,0.4 -1.1,1.7 -1.7,2 0,0 0.9,1.2 1.2,1.7 l -0.3,1.6 c -0.4,0.3 -2.5,1.9 -2.6,1.9 0,0 -1.6,-0.6 -1.8,-0.4 -0.8,0.7 -2.4,2.3 -3.3,2.6 -0.8,0.3 -1.8,0.4 -2.3,1.2 -0.1,0.8 -0.3,1.9 -1.1,2.3 l -0.7,0 c -0.7,0.3 -0.7,1.9 -0.9,2.4 -0.2,0.7 -1.3,0.9 -1.6,1.6 0,0 1.7,0 2.5,0.1 1.7,0.3 3.2,1.9 4.5,3 0.9,0.7 1.8,1.4 2.6,2.2 0,1.1 -0.1,2.3 -0.1,3.4 0,1.4 0.2,2.7 0.2,4.1 0,1.4 -0.3,4.4 0.1,5.6 2.1,2.2 4,4.3 6.3,6.3 0.7,1.4 0.3,1.6 0.6,2.8 0.1,0.4 0.8,0.9 1.1,1.3 0.5,0.8 0,1.3 0.2,2 0.1,0.6 0.4,1.2 0.5,1.7 0,0.3 -0.2,0.7 -0.4,0.9 0.1,0.7 -0.1,1.4 -0.3,2.1 l 0.2,0.4 c 0.6,0.1 0.4,1.5 1.1,2.2 0.1,0.2 0.9,0.5 0.9,0.5 l 0.9,-0.7 0.5,1.3 1.7,0 c 0.8,1.2 2.8,1.7 4,2.2 0.3,0.1 2.1,0.7 2.9,1.4 0.3,0.3 1,1.3 1,1.7 0,0.3 -3.6,3.1 -3.9,4.8 0,0.6 2.6,3.3 3,3.7 1.9,2.2 0.3,2.5 0.7,3.8 0.3,1.1 1.4,0.9 1.7,1.5 0.4,0.8 -0.8,1.6 -0.8,2.6 0,1.1 0.4,2.4 0.7,3.4 0.2,0.6 0.7,1.1 0.8,1.8 0.1,0.4 0.7,3.6 0.8,4.7 0.1,1.3 -0.4,1.8 0.6,2.9 0,0.7 -0.5,1.8 -0.2,2.5 0.2,0.5 0.7,1 0.8,1.5 0.2,0.5 0.1,1.2 0.2,1.8 0.1,0.5 0.3,0.9 0.4,1.4 0.1,0.5 -0.2,1.5 0,1.8 0.3,0.7 0.9,1.3 1.3,1.9 0.4,0.6 0.7,1.2 0.9,1.9 0.2,0.5 1.5,3.4 1.4,3.8 -0.4,0.9 -2.5,2.7 -2.6,3.3 l 0.2,0.4 c 3.5,2.3 1.1,2.2 3,4.8 1,1.4 3.8,2.2 5.3,3.1 1,0.8 1.8,1.8 2.7,2.6 0.7,0.7 1.1,1.4 2,1.9 0.6,0.3 2,0.8 2.3,1.3 0.5,0.7 1,1.5 1.5,2.3 0.5,0.7 0.9,1.6 1.4,2.3 0.8,0.6 3.2,1 4.5,1.7 1.5,0.9 5.2,4.4 6.6,5.6 0.7,1.6 -0.7,1.8 -1.1,2.2 -0.3,0.3 -1.4,1.8 -1.6,2.1 -1.1,1.4 -4,4.7 -4.9,6.4 -0.4,0.7 -0.6,1.6 -0.8,2.4 l -1.6,0.6 c 0,0.2 -0.2,1.1 -0.2,1.3 l -0.6,0.6 c -0.2,0.4 -0.5,1 -0.6,1.5 -1,0.5 -3.6,0.4 -3.8,2.7 0.4,0.2 1,0.3 1.4,0.2 1.8,1.4 2.5,1.7 3.2,4 1.4,0.5 2.8,1 4.2,1.4 0.1,0.7 -0.6,1.7 -0.6,2.3 l 0.8,1.5 c 0.4,0.8 -1.5,6.4 -1.8,7.6 -1.6,0 -3.4,-0.1 -5,0.3 -0.8,0.2 -1.5,0.8 -2.3,0.9 -1.6,0.3 -3.1,0.5 -4.6,0.9 -0.2,0.3 -0.1,0.9 -0.1,1.2 0.3,2.4 3.7,1.6 4.2,2.1 0,0.8 -0.5,5.4 -0.4,5.6 0.1,0.1 2.6,4.5 2.7,4.8 l -0.3,0.6 c -1.3,0.5 -2.6,1.1 -3.9,1.7 -0.3,0.5 -0.6,1 -0.8,1.6 0.2,0.4 0.3,1 0.5,1.4 1,2.2 0.9,1.6 2.4,3.3 1.8,1.9 2.5,2.2 4.8,3.2 0.8,0.4 1.6,0.9 2.4,1.2 0.6,0.2 1.6,0.3 2.1,0.7 0.7,0.6 1.1,2.1 1.1,2.2 0.3,-0.1 1.2,-0.2 1.5,-0.1 0.4,0.4 2.3,2.1 2.3,2.1 -1,0.8 -2.5,1.1 -3.4,1.9 -0.4,0.3 -1.4,2.2 -2.5,3.2 -0.2,0.6 0.2,1.6 0.2,2.2 0.3,2.1 -0.3,4.4 -0.1,6.6 l 0,0.1 c 0.3,0.6 1.2,2.6 1.7,2.9 1,0.7 5.1,0.4 6.2,0.3 1,2.1 3.3,5 4.5,6.9 2.9,4.3 5.2,9 7.8,13.5 -0.1,5.7 -0.1,11.4 -0.3,17.2 1.1,1.3 2.8,2.8 3.6,4.3 0.6,1 0.6,2.6 1.3,3.6 1.5,2 1.7,0.1 1.5,3.5 -0.2,3.3 -0.5,6.7 -0.4,10 0.2,0.1 2.8,2.3 2.9,2.5 0.2,0.4 0.2,0.7 0.6,1 0.5,0.1 1.6,0.4 1.9,0.7 l 0.2,1.4 c 2.8,2.1 -0.3,3.1 0.5,5.3 0.1,0.3 0.5,0.7 0.6,1 0.9,2 1.4,3 0.8,5.1 -0.1,0.3 -0.3,0.5 -0.4,0.8 -0.2,0.7 -0.3,1.3 -0.7,2 0.5,2 1.4,3.8 2.7,5.3 0.2,1.5 0.2,3.1 0.4,4.6 0.7,0.9 1.5,1.8 2.2,2.8 -0.6,2.2 -2.3,8 -2,10.2 l 0.7,4.2 c 0,0.2 -0.1,1.4 -0.1,1.4 0,0 3,1 3.3,1.1 0.4,0.2 0.6,0.6 1.1,1.6 3.1,0.3 6.2,0.7 9.3,1 0.6,0.1 2.2,0.3 2.6,0.2 1.9,-0.3 15.2,-3.7 15.2,-3.7 1.4,0 3.4,-0.5 5.5,-1 z"
         id="path10"
         inkscape:connector-curvature="0" /></defs></defs><sodipodi:namedview
     pagecolor="#ffffff"
     bordercolor="#666666"
     borderopacity="1"
     objecttolerance="10"
     gridtolerance="10"
     guidetolerance="10"
     inkscape:pageopacity="0"
     inkscape:pageshadow="2"
     inkscape:window-width="1600"
     inkscape:window-height="837"
     id="namedview19"
     showgrid="false"
     fit-margin-top="0"
     fit-margin-left="0"
     fit-margin-right="0"
     fit-margin-bottom="0"
     inkscape:zoom="0.46704513"
     inkscape:cx="369.24548"
     inkscape:cy="350.82489"
     inkscape:window-x="-8"
     inkscape:window-y="-8"
     inkscape:window-maximized="1"
     inkscape:current-layer="Слой_1" /><path
     style="fill:#f9e300"
     d="m 40.763672,249.00042 c 0.492471,1.13418 1.187223,2.63257 1.71289,3.02344 l 0,2.24609 c 0,1.19606 1.250126,1.56359 0.765626,2.78711 -0.190501,0.27742 -0.59496,0.56644 -0.94336,0.57617 -2.2845,0.0629 -4.107431,0.11904 -6.332031,0.6836 -0.037,0.01 -0.290838,0.22015 -0.335938,0.2539 -0.2849,0.6149 -0.898234,2.94275 -0.802734,3.60742 0.1098,0.76763 0.155456,1.68023 0.347656,2.42383 0.1819,0.70471 1.048981,1.69219 0.550781,2.49414 0,0 -1.560559,1.42247 -1.880859,1.61524 -0.7865,0.47304 -1.729372,0.59936 -2.513672,0.99804 -1.1417,0.58173 -2.095825,3.76754 -4.640625,3.91797 l -0.298828,0.3086 c -0.015,0.0212 0.33745,3.95559 0.34375,4.04883 0,0 -2.719153,-0.0721 -3.126953,-0.1504 -1.7841,-0.34206 -1.784516,2.3427 -1.916016,3.35743 -0.1156,0.89405 -0.34539,1.71639 -0.33789,2.66992 0.01,0.50622 0.275853,1.11932 0.439453,1.59179 0.2065,0.59718 0.06267,2.55992 -0.765625,2.73438 -1.3299,0.27971 -2.654081,0.45672 -3.863281,1.10938 -0.552,0.29802 -1.261941,0.58783 -1.744141,0.97851 -0.8912,0.72244 -0.08906,0.92926 -0.03906,1.76953 0.039,0.64809 -0.215062,1.27243 -0.226562,1.89649 -0.018,1.00902 1.207053,1.07631 0.626953,2.45312 -0.4164,0.98728 -1.701122,2.19389 -1.294922,3.39453 0.5262,1.55642 1.53815,2.01045 2.28125,3.35352 0.2333,0.42271 0.249144,1.0515 0.464844,1.49023 0.1561,0.31803 1.446934,2.2445 1.802734,2.89258 0.7694,1.40198 4.08361,2.5073 5.28711,3.625 0.063,0.17046 0.709518,0.93307 0.949219,1.16016 0.544599,0.51652 0.722265,1.49455 1.322265,1.91211 0.4004,0.27857 0.887434,0.23431 1.052735,0.78515 -0.086,0.39353 -0.01707,1.04771 0.173828,1.40235 -0.7373,1.29616 -1.742288,0.88301 -2.992188,0.25781 0,0 -1.240906,1.42866 -1.316406,1.69922 -0.092,0.33062 -1.427734,1.92187 -1.427734,1.92187 -0.449001,0.64751 -2.496279,-0.47735 -1.767579,2.2168 l -0.892578,0.13867 c 0,0 0.241275,1.99655 0.484375,2.85742 l -1.328125,0.14649 c -0.6464,0.39868 -2.185478,2.63741 -2.142578,3.20312 0.01,0.13785 0.06674,0.60273 0.05273,0.71485 -0.039,0.3043 -3.731416,6.66537 -4.228516,7.53711 2.4763,7.14547 5.164784,14.26046 7.271484,21.52148 0.095,0.32719 1.962403,7.89011 2.345703,8.11719 l 2.445313,1.44726 c 1.2584,0.74532 3.729059,2.47103 4.943359,2.86914 0.21,0.0692 1.074685,0.029 1.271485,-0.0625 0.4787,-0.22308 1.638234,-0.87616 1.677734,-0.93164 0,0 1.258181,0.72631 1.863281,0.82813 0,0 1.675141,-1.66947 2.556641,-1.5625 1.8818,1.22809 2.129715,2.20549 3.478516,3.53711 1.0564,1.04162 2.423656,1.70947 3.472656,2.76367 l 0.880859,0.88476 c 0.131,0.17447 0.06311,1.54707 0.03711,1.5625 -2.939599,1.76007 -6.012575,3.30022 -8.921874,5.10547 -0.074,0.14243 -0.2014,0.32866 -0.25,0.47852 -0.750501,2.30118 -1.44541,4.57531 -2.41211,6.79297 -0.091,0.20821 -0.01051,0.83436 0.179688,0.97851 -0.266,1.26413 1.267703,3.64009 1.720703,4.64453 l -1.148438,0.93165 c -0.2191,0.18361 -1.998206,0.76158 -2.253906,0.89257 l -3.039063,1.55469 c -0.4616,-0.22251 -1.692134,0.17843 -2.177734,0.28711 -1.545,0.34778 -0.912456,2.94956 -1.410156,3.91797 -1.2778,0.87688 -1.144619,1.77241 -2.011719,2.58008 -2.2091,2.05807 -3.161244,2.96951 -5.152344,5.48633 -0.058,0.0732 -0.178209,0.3907 -0.224609,0.49023 0.1533,0.16187 0.460772,0.63238 0.388672,0.87891 -0.7877,1.11312 -1.239194,1.57409 -2.621094,1.46484 -0.7042,0.42557 -1.100856,1.6558 -1.722656,2.00586 0,0 0.877034,1.20607 1.240234,1.67969 l -0.318359,1.5664 c -0.4273,0.28028 -2.508334,1.8971 -2.615235,1.90625 0,0 -1.612743,-0.6285 -1.8398432,-0.42773 -0.8157,0.72015 -2.3504376,2.27643 -3.3359376,2.59961 -0.7968,0.26026 -1.7520187,0.40238 -2.2617187,1.16601 -0.052,0.77792 -0.3144906,1.91034 -1.0878906,2.30274 l -0.7363281,0.004 c -0.6864,0.29058 -0.6956188,1.86921 -0.8867188,2.44922 C 1.365675,430.55562 0.2797,430.7006 0,431.38128 c 0,0 1.7017156,-0.0197 2.4785156,0.10156 1.6525,0.25625 3.2162782,1.93645 4.5175782,3.00781 0.8728999,0.71901 1.8102406,1.40504 2.6191406,2.19727 0.014,1.14744 -0.1484375,2.29143 -0.1484375,3.43945 0,1.35107 0.1561562,2.69938 0.1601562,4.05274 0.034,1.40485 -0.2520531,4.35232 0.060547,5.57812 2.0591999,2.22109 4.0481529,4.32154 6.3144529,6.32813 0.7064,1.37167 0.271556,1.58348 0.597656,2.83789 0.1104,0.42671 0.848041,0.90922 1.119141,1.33594 0.528,0.82998 0.02258,1.26014 0.208984,2.02148 0.1395,0.56972 0.434866,1.1515 0.509766,1.73437 0.033,0.2557 -0.201069,0.71254 -0.355469,0.89844 0.065,0.74418 -0.09086,1.4443 -0.347656,2.14844 l 0.179687,0.43164 c 0.624,0.12126 0.397079,1.47203 1.080079,2.24024 0.1464,0.23394 0.943359,0.4746 0.943359,0.4746 l 0.876953,-0.74609 0.529297,1.34961 1.685547,0.0195 c 0.7779,1.21036 2.804631,1.68383 4.019531,2.22266 0.2843,0.12641 2.072316,0.74298 2.916016,1.4414 0.3215,0.26598 0.986803,1.3135 1.033203,1.70703 0,0.32034 -3.614169,3.08118 -3.855469,4.81836 -0.012,0.59088 2.645028,3.26699 3.048828,3.74805 1.8659,2.21995 0.261456,2.48878 0.660156,3.83985 0.3175,1.07594 1.375929,0.92779 1.736329,1.53124 0.401,0.8357 -0.821569,1.64763 -0.792969,2.56055 0.034,1.10969 0.358697,2.41389 0.716797,3.44922 0.2127,0.61376 0.726544,1.13763 0.839843,1.80859 0.04308,0.25592 0.345419,1.72754 0.570313,3.04102 l 614.419925,0 c 0.8631,-3.08478 1.56225,-6.27905 2.73632,-9.23047 0.0315,-0.0795 0.46218,-0.51527 0.53711,-0.62109 0.46561,-0.66239 0.82227,-2.56446 0.82227,-2.56446 1.21322,-3.6082 1.42973,-2.46283 5.23242,-3.31054 0.22594,-0.0503 0.5041,-10e-4 0.73633,0.01 0,0 -1.19397,-1.78491 -1.52344,-1.88672 -0.4679,-0.14415 -0.66147,0.0314 -1.07617,-0.34375 -0.53826,-0.48678 -3.35972,-2.86243 -3.57422,-3.68554 -0.40326,-1.55414 -0.77027,-3.13728 -1.42578,-4.61133 -0.73846,-1.66053 -1.73406,-3.14763 -2.60352,-4.73438 -1.03647,-1.89447 -1.98953,-3.89118 -2.95507,-5.82226 -0.20993,-0.42043 -0.37121,-1.06426 -0.56055,-1.5293 l 0.18164,-0.14062 1.16797,-0.20118 c 0,0 0.0553,-1.63736 -1.01953,-2.35351 -1.07365,-0.71615 -0.35804,-2.02857 -0.44727,-2.96094 -0.0904,-0.93236 -1.62092,-1.97224 -2.57617,-3.16601 -0.9541,-1.19377 -0.95383,-2.54587 -0.82226,-3.00977 0.13156,-0.46389 -0.13282,-2.88021 -0.13282,-3.23828 0,-0.35808 0.002,-1.59098 -0.47656,-1.83008 -0.47705,-0.23852 -0.47842,-1.19311 -2.07031,-2.50586 -1.59189,-1.31332 -4.03906,-1.78515 -4.03907,-1.78515 0,0 -2.80443,1.90413 -4.11718,2.85937 -1.3139,0.95468 -2.54688,-0.7168 -2.54688,-0.7168 0,0 -0.71565,-2.18914 -2.16797,-2.36132 -1.45175,-0.17217 -2.16918,0.41187 -2.88476,-1.49805 -0.71729,-1.90992 -2.15031,-2.06925 -2.50781,-2.54688 -0.35865,-0.47705 -2.06852,-1.19336 -3.50196,-1.19336 -1.4323,0 -2.06949,-1.79109 -2.30859,-2.42773 -0.23796,-0.63664 -1.9076,-2.86493 -3.32617,-4.32813 -1.41972,-1.46433 -1.72667,-2.03876 -2.77344,-2.58789 -1.04677,-0.54855 -0.38566,-1.95775 0.21094,-3.31054 0.5966,-1.35336 -0.95352,-1.43249 -1.98828,-1.14649 -1.0359,0.28486 -0.20057,-2.59389 0.3457,-4.56445 0.54512,-1.96998 -1.26276,-2.72509 -1.58594,-3.10547 -0.32318,-0.37981 -1.46721,-1.8872 -1.34766,-3.55859 0.11956,-1.67083 4.1e-4,-3.50236 -0.11914,-4.45703 -0.11955,-0.95468 0.12049,-4.21843 -0.0391,-5.88868 -0.15959,-1.67083 0.87578,-5.57013 1.6211,-6.60546 0.74646,-1.0359 3.47189,-3.77926 3.85742,-4.06641 0.38553,-0.28657 1.40522,-0.31103 1.75586,-2.11914 0.35007,-1.80868 -0.46916,-2.5301 -0.94336,-3.44531 -0.47304,-0.91578 0.11474,-1.62997 0.59179,-2.22657 0.4782,-0.59717 1.23438,-2.15055 1.23438,-3.34375 0,-1.19377 0.52539,-4.91015 0.52539,-4.91015 l -4.38672,-0.11328 -0.14258,1.25976 c -0.56743,0.83055 -1.77954,1.82257 -2.83203,1.94727 -1.98085,0.23624 -6.69516,-0.35121 -8.83789,-0.53711 -1.07365,-0.0932 -5.65886,-0.15932 -6.43164,-0.20508 -0.87231,-0.0526 -3.97142,-0.18477 -4.73047,-0.2168 l -22.22851,-0.96484 c -0.6189,-0.028 -1.2387,0.0762 -1.87305,0.01 -1.56672,-0.16474 -3.04679,-0.41682 -4.63867,-0.52149 -0.16417,-0.0109 -2.73765,0.0237 -3.82617,-0.0215 -6.63068,-0.27513 -13.26319,-0.2742 -19.89844,-0.28907 0,0 -19.73041,-0.43341 -20.89844,-0.63476 0,0 -0.67765,-10.42438 -1.11523,-15.01758 -0.17789,-1.86473 -0.50037,-3.72064 -0.66797,-5.58594 -0.72187,-8.01951 -1.0765,-16.11121 -1.61133,-24.14844 -2.22109,-2.59746 -17.42397,-20.08137 -17.80664,-21.05664 l 16.9043,-0.24804 c -0.30488,-8.99649 -0.20883,-18.03272 -0.22657,-27.03321 0,0 -3.16585,-2.31072 -3.88086,-3.24023 -0.715,-0.92951 -0.42968,-1.78694 -0.42968,-2.50195 0,-0.715 -0.71552,-2.78738 -1.14453,-3.35938 -0.429,-0.57201 -1.50196,-1.7168 -1.50196,-1.71679 0,0 -1.28609,-0.71571 -0.64258,-2.07422 0.6435,-1.35851 0.21417,-1.93038 -0.21484,-2.35938 -0.429,-0.42901 -2.50272,-3.50383 -2.57422,-3.86133 -0.0715,-0.3575 -0.14181,-1.42917 -0.0703,-1.92968 0.0715,-0.5005 0.21389,-2.14471 -0.78711,-3.07422 -1.00101,-0.92951 -0.93053,-1.14513 -0.64453,-1.93164 0.286,-0.7865 0.3125,-2.83985 0.3125,-2.83985 0,0 -0.19275,-1.68822 0.57031,-1.5332 0.58818,0.11966 0.94903,-0.33121 1.76758,-1.13086 l -457.185548,0 z"
     id="rect15"
     inkscape:connector-curvature="0" /><path
     style="fill:#007934"
     d="m 33.748047,500.00042 c 0.187869,1.00288 0.375179,2.10327 0.412109,2.69922 0.082,1.32992 -0.412012,1.78743 0.554688,2.93945 0.036,0.74875 -0.453032,1.8355 -0.207032,2.53906 0.177901,0.5108 0.653088,1.00955 0.804688,1.52149 0.1539,0.51709 0.08348,1.24199 0.175781,1.78711 0.076,0.45417 0.257763,0.90888 0.351563,1.36133 0.1064,0.51195 -0.178231,1.45465 -0.01953,1.83789 0.271701,0.65895 0.93151,1.30323 1.34961,1.87695 0.4084,0.55999 0.65014,1.24751 0.93164,1.875 0.216701,0.48163 1.5456,3.36872 1.4375,3.80859 -0.393,0.8929 -2.458843,2.65144 -2.589843,3.27149 l 0.205078,0.38086 c 3.5178,2.27943 1.089187,2.20188 2.992187,4.78906 1.0445,1.42029 3.766719,2.20839 5.324219,3.08984 0.9925,0.78079 1.839078,1.75141 2.705078,2.61914 0.6802,0.68126 1.05185,1.39706 1.96875,1.9336 0.5503,0.32147 1.967125,0.81565 2.328125,1.25781 0.544,0.6681 1.017894,1.54423 1.496094,2.26953 0.4914,0.74532 0.942097,1.55154 1.404297,2.32031 0.7774,0.55713 3.244937,0.96284 4.523437,1.73047 1.5009,0.90148 5.243816,4.37588 6.603516,5.55078 0.6732,1.5856 -0.668725,1.75877 -1.140625,2.22266 -0.3449,0.33863 -1.377766,1.83483 -1.572266,2.08594 -1.1051,1.43058 -3.99014,4.72358 -4.93164,6.36523 -0.3821,0.66582 -0.587135,1.63674 -0.802735,2.36719 l -1.564453,0.59961 c -0.04,0.20993 -0.250559,1.08607 -0.193359,1.25195 l -0.648438,0.56836 c -0.2442,0.4496 -0.48559,0.98906 -0.58789,1.49414 -0.9507,0.47534 -3.586813,0.41747 -3.757813,2.66602 0.3547,0.20249 0.9769,0.28522 1.375,0.24804 1.8007,1.39571 2.529578,1.67254 3.205078,3.97657 1.3854,0.48106 2.755857,0.97734 4.160157,1.40234 0.147,0.71329 -0.61816,1.67404 -0.56836,2.31641 l 0.789063,1.51953 c 0.4153,0.79852 -1.464578,6.39062 -1.830078,7.625 -1.5867,-0.0206 -3.446785,-0.0591 -5.021485,0.33789 -0.7894,0.19963 -1.486178,0.74958 -2.267578,0.89258 -1.5621,0.28658 -3.089231,0.51582 -4.644531,0.88476 -0.1779,0.28486 -0.09855,0.92553 -0.06055,1.24414 0.2895,2.43388 3.66895,1.61716 4.15625,2.14454 0.01,0.75275 -0.524559,5.42259 -0.443359,5.56445 0.058,0.0995 2.63134,4.4655 2.68164,4.78125 l -0.292969,0.58398 c -1.324199,0.53654 -2.6282,1.12836 -3.9375,1.69922 -0.2974,0.48506 -0.600924,1.0491 -0.765624,1.59766 0.153799,0.43358 0.28099,0.96348 0.46289,1.37304 0.9655,2.18048 0.8565,1.64788 2.4375,3.29297 1.8373,1.91392 2.510634,2.15301 4.802734,3.22266 0.793301,0.37009 1.562201,0.88138 2.375,1.19141 0.5588,0.21278 1.614382,0.26412 2.050782,0.66796 0.671,0.62119 1.078831,2.1315 1.144531,2.17383 0.3295,-0.0612 1.213569,-0.20466 1.542969,-0.10742 0.4107,0.41127 2.291015,2.08984 2.291015,2.08984 -1.0382,0.78136 -2.454987,1.06324 -3.429687,1.87891 -0.4021,0.33634 -1.375025,2.20491 -2.515625,3.16016 -0.2014,0.58516 0.162375,1.58199 0.234375,2.16601 0.2643,2.13301 -0.29506,4.4099 -0.13086,6.55664 l 0.04688,0.11328 c 0.264299,0.63035 1.206528,2.57217 1.673828,2.87305 1.0227,0.65952 5.138878,0.35674 6.205078,0.30469 0.9696,2.06722 3.252791,5.02942 4.488281,6.88672 2.87203,4.31806 5.241363,8.97589 7.845703,13.4707 -0.0761,5.73834 -0.05947,11.45053 -0.253906,17.18945 1.14058,1.29902 2.765792,2.83533 3.638672,4.25391 0.64522,1.04905 0.596337,2.64249 1.335937,3.61719 1.4998,1.9757 1.684738,0.11441 1.523438,3.47265 -0.15673,3.28159 -0.481993,6.71603 -0.408203,10.00391 0.16531,0.14529 2.79914,2.28848 2.90039,2.44922 0.22422,0.35521 0.20135,0.66448 0.59375,0.97851 0.45017,0.10296 1.648303,0.3534 1.939453,0.70118 l 0.181641,1.35351 c 2.78051,2.11813 -0.269467,3.10547 0.470703,5.25391 0.11955,0.34721 0.475513,0.70034 0.632813,1.04297 0.91806,2.00316 1.419888,2.97928 0.792968,5.0957 -0.0789,0.26598 -0.320728,0.52813 -0.417968,0.79297 -0.24539,0.67096 -0.281892,1.33398 -0.701172,1.95117 0.48392,1.97399 1.419299,3.75671 2.724609,5.29883 0.16417,1.54098 0.244393,3.09291 0.382813,4.63672 0.74246,0.9375 1.531886,1.83408 2.191406,2.83398 -0.57429,2.1828 -2.3432,8.02575 -2,10.21485 l 0.664062,4.24609 c 0.0252,0.1596 -0.125,1.39258 -0.125,1.39258 0,0 2.960849,0.96483 3.261719,1.14453 0.35007,0.2082 0.581496,0.61835 1.128906,1.56445 3.117418,0.3272 6.229988,0.70012 9.345698,1.04102 0.58973,0.065 2.16229,0.32543 2.63477,0.24023 1.89677,-0.3455 15.19824,-3.6823 15.23828,-3.6914 2.03234,-0.4513 4.08072,-1.02675 6.11133,-1.49805 l 0.004,-0.002 c 0.40441,-0.7013 2.79305,-5.16668 2.97266,-5.32618 0.87859,-0.7768 2.37818,-1.49891 3.39062,-2.13672 0.83628,-0.52739 1.73081,-0.96688 2.48243,-1.61718 -0.14014,-2.0301 -0.38922,-4.05688 -0.59571,-6.08008 l 0.18555,-0.23438 c 0.91521,-0.065 1.83307,-0.10153 2.75,-0.14843 0.0618,-0.041 0.1637,-0.0866 0.21289,-0.14258 0.65438,-0.7482 1.41288,-1.83395 2.1582,-2.46485 0.0584,-0.049 7.15159,-2.88374 7.75391,-3.13085 0.0183,-0.65609 -0.0837,-1.49047 0.1543,-2.10938 0.3964,-1.03247 0.89933,-2.11377 1.21679,-3.16797 0.52568,-1.74461 0.65467,-3.87868 0.98243,-5.68164 0.77621,-0.44902 2.73682,-1.74469 3.4707,-1.84766 l 1.90625,0.82813 1.03516,-1.46289 c 1.99801,-0.87002 6.32752,-1.76108 8.36328,-2.3125 2.07066,-0.56056 4.26926,-1.34539 6.38281,-1.62109 0,0 0.63108,-0.35666 1.0332,-0.98243 0.40212,-0.62578 0.62543,-0.93305 1.15625,-0.88672 0.53082,0.0463 1.67586,-0.8115 1.31836,-1.8125 -0.3575,-1.001 7.7e-4,-2.5022 0.0723,-3.07421 0.0715,-0.572 0.68835,-2.86957 0.91601,-3.9375 0.22766,-1.06794 1.22928,-3.49915 1.30078,-3.78516 0.0715,-0.286 0.21332,-1.49984 0.0703,-2.21484 -0.143,-0.71501 -0.49933,-1.78899 -0.0703,-2.14649 l 1.03711,-0.58398 3.38672,1.23047 c 0.54397,0.19734 4.1723,1.4724 4.32617,1.57421 0.15502,0.1024 1.78355,1.95302 2.15821,2.35743 0.10983,0.79794 -0.4014,1.66026 -0.23438,2.49023 1.36766,0.0572 2.75254,0.37267 4.09961,0.58203 l 2.22266,0.32227 c 0.32376,0.0492 3.52588,4.25018 3.96289,4.80273 0.43129,0.54513 1.55791,2.11992 2.04297,2.32813 0.0652,0.135 0.20859,0.52915 0.14453,0.68359 0.30774,0.0132 2.14074,1.39121 2.49023,1.66406 1.08681,0.85 1.19583,0.81524 2.58008,-0.041 0.61204,-0.37924 1.76912,1.06828 3.33984,0.72851 l 2.58204,-0.84961 c 0.48506,0 0.90397,0.32732 1.25976,-0.26757 l 0.60156,-0.79883 c 1.69256,0.39068 3.39538,0.91825 5.09766,1.22656 l 0.48828,-0.4082 c 6.27603,0.0338 12.56324,-0.16896 18.83985,-0.26563 2.44875,-0.0372 5.07826,-0.27806 7.50585,-0.043 l 0.35157,0.14258 c 0,0 2.78856,1.57261 3.28906,1.78711 0.5005,0.2145 1.35726,0.2145 2.07227,0 0.715,-0.2145 3.28975,1.64368 3.71875,1.92969 0.42901,0.286 2.78932,1.64522 3.36132,2.07422 0.572,0.42901 2.42919,-7.7e-4 2.92969,-0.0723 0.50051,-0.0715 1.57307,-0.0716 2.03125,0.11719 0.45875,0.18876 2.68853,2.45686 3.33203,3.17187 0.64351,0.715 2.28772,1.7162 2.83399,2.4375 0.54626,0.72187 -0.47354,1.06667 -0.89453,1.5586 -0.421,0.49192 -0.58029,1.01092 -0.54883,1.22656 0.0315,0.21565 0.11151,2.07092 1.04101,2.85742 0.92951,0.78651 1.35792,1.35879 0.85742,2.2168 -0.50049,0.85801 1.00188,1.07354 1.35938,0.64453 0.3575,-0.429 0.92892,-0.1442 1.31445,0.76758 0.3861,0.9117 1.96094,3.26367 1.96094,3.26367 0,0 1.44293,0.97279 1.90625,1.55859 0.46332,0.5857 -0.10616,1.77532 -0.53516,2.13282 -0.42901,0.3575 -0.64292,2.57372 -0.85742,3.07422 -0.2145,0.5005 -0.42873,0.78653 0.57227,1.64453 1.00101,0.8581 1.00111,1.07245 1.28711,2.00195 0.28601,0.9295 0.85692,1.50193 2.32812,1.58203 1.47119,0.08 1.17391,2.92291 0.81641,3.56641 -0.3575,0.6435 -0.2143,1.42941 0.66601,1.72461 0.88032,0.2957 0.05,0.70534 -0.0215,1.27734 -0.0715,0.572 0.16016,1.54883 0.16016,1.54883 0,0 1.05434,-0.11852 1.67382,-0.41992 0.61948,-0.3009 0.73905,-2.12875 0.81055,-2.84375 0.0715,-0.715 0.85982,-2.00378 0.99024,-2.67188 0.13041,-0.6675 0.0117,-4.12128 0.0117,-5.05078 0,-0.9296 0.3573,-2.14598 0.94532,-2.39648 0.58802,-0.2505 0.84195,-0.177 0.12695,-1.75 -0.71501,-1.573 0.78651,-2.64674 1.45117,-3.36914 0.6641,-0.7225 0.97989,-2.70891 1.83789,-3.06641 0.85801,-0.3575 1.28779,-2.1448 1.7168,-2.7168 0.429,-0.57201 0.6436,-1.57337 1.28711,-1.85937 0.6435,-0.286 0.78502,-0.92874 0.91601,-1.53907 0.13099,-0.61032 1.44286,-4.53824 1.72657,-5.53124 0.28371,-0.99301 1.07566,-1.86831 1.51953,-1.99415 0.44388,-0.12641 1.05654,-0.15784 1.06055,-0.66406 0.004,-0.50565 0.28074,-2.21187 0.64453,-3.23633 0.36437,-1.02389 1.13782,-2.47804 1.66406,-3.46875 0.52625,-0.99128 0.4748,-1.58432 1.4043,-1.79882 0.92951,-0.2145 0.64334,-0.85845 0.71484,-1.50196 0.0715,-0.6435 0.84375,-3.10351 0.84375,-3.10351 12.83464,0.0812 25.65755,0.0121 38.49219,0.0527 4.46564,0.0137 8.93336,-0.0172 13.39843,0 2.95097,0.0126 6.06709,0.19513 9.02149,0.043 0.14701,0.57944 -0.31645,1.21643 -0.10938,1.80273 0.27399,0.7745 0.88576,1.49579 0.74219,2.36524 -0.12069,0.73217 -1.21234,1.67406 -1.0293,2.29297 0.78308,0.95582 0.63957,2.38328 1.73438,3.08398 l 1.50586,-0.52148 c 0.90834,0.0189 1.73658,1.76571 2.0918,2.45898 0.28714,0.1224 1.21013,-0.0149 1.58593,0 0.69728,0.71843 1.12423,2.59872 2.07032,2.57813 l 0.10937,-0.36914 c 1.7143,-5.56275 3.04968,-11.23934 4.80859,-16.78321 1.24983,-3.93939 2.3842,-7.87952 3.53907,-11.84179 1.20751,-4.13903 7.64727,-22.97888 9.36328,-28.33399 0,0 3.08046,-9.19787 3.30469,-10.20117 0.23338,-1.04448 0.0137,-2.65166 -0.0195,-3.75391 -0.24596,-8.11503 -0.29971,-16.23067 -0.61718,-24.3457 4.31692,-6.17479 8.50867,-12.43555 12.84961,-18.59375 1.88647,-2.67584 4.15776,-5.22764 5.69531,-8.08594 0.76877,-1.43058 2.91434,-6.51907 3.30273,-7.48633 0.77621,-1.93394 4.69606,-14.56019 6.48242,-18.69921 0.0492,-0.1144 0.50988,-0.42464 0.64258,-0.42579 0.87002,-0.006 1.5122,0.38059 2.50977,0.20899 0,0 22.19809,-3.77987 22.55273,-3.85938 1.39741,-0.31174 26.94336,-4.5996 26.94336,-4.59961 3.09111,-0.52853 6.24532,-0.95997 9.31641,-1.59374 2.36639,-0.48849 23.27734,-6.35547 23.27734,-6.35547 0.15559,-0.0429 9.90037,-2.76078 10.00391,-2.75391 15.55909,1.07594 31.11477,2.09412 46.68359,3.01562 0.2431,0.0143 2.3136,0.91049 3.13672,1.28516 2.27143,1.03418 4.50223,2.34846 6.71875,3.50391 3.24498,1.69085 13.95285,6.9947 15.98633,8.30859 l 0.13086,0.0449 c 1.708,0.57658 6.81969,3.4095 7.74805,3.84766 0.85114,0.40212 4.97164,2.16815 6.05273,2.80078 3.22782,1.89162 6.5437,3.46881 9.80469,5.33984 0.91864,0.52682 2.34935,2.14137 2.39453,3.31055 -2.12328,-0.27399 -1.78952,1.63884 -2.35352,2.21485 0.16188,0.32662 0.27684,0.91722 0.1836,1.27929 0.33405,0.36037 -0.17969,3.17969 -0.17969,3.17969 1.24468,0.21965 1.16795,1.48232 1.51172,2.48047 -0.53368,1.02503 0.65429,2.64062 0.6543,2.64062 l 0.13476,0.9668 c 0.57029,0.54855 0.51595,1.44422 1.13086,1.96875 0.0223,2.18735 -0.91807,1.44801 -1.66797,2.69727 l 0.30274,0.39843 c 0,0 1.85558,-0.63411 2.42187,-1.15234 1.51123,-1.38082 1.35098,-2.28062 3.66016,-2.21484 0.49994,-0.53082 0.6133,-1.03423 0.72656,-1.16407 0.58402,-0.67554 1.1729,-1.36952 2.11328,-1.51367 0.35864,-0.0555 0.74453,0.10011 1.12891,0.006 0.89691,-0.43987 0.60456,-1.35511 0.98437,-1.62109 1.0971,-0.57258 1.67603,-0.0326 2.51172,0.52343 0,0 0.005,-0.74895 0.38672,-1.2832 0.38668,-0.54111 1.8481,-1.35241 1.8418,-1.98047 l -0.0293,-0.10547 c -0.29859,-1.04963 -5.14468,-4.00824 -6.25781,-4.91601 -1.62106,-1.32248 -2.93408,-2.84287 -4.66211,-4.03321 -0.48734,-0.33633 -3.50551,-2.70795 -3.23438,-3.35546 1.24068,-2.96986 2.72014,-5.84935 4.06836,-8.77344 l 8.99805,-19.54883 c 1.73145,-3.76894 3.52053,-7.51017 5.28515,-11.26367 0.27,-0.57543 0.35097,-1.17386 0.91211,-1.58399 0.23452,0.0584 0.42142,0.12686 0.61133,0.29102 0.64636,-0.23967 1.77433,-0.0853 2.38867,0.17383 0.2614,-0.0166 0.61207,-0.3046 0.73047,-0.52539 -0.0189,-0.64293 0.16243,-1.23276 0.1836,-1.84766 0.02,-0.60003 -0.40149,-1.02137 -0.47071,-1.58594 -0.0869,-0.70357 -0.0134,-3.30441 -0.54882,-3.58984 -0.56457,-0.30145 -2.26304,0.20184 -2.4375,-0.39648 1.87331,-7.06826 4.19169,-14.04655 6.32812,-21.04102 0.23529,-0.77171 0.44892,-1.55624 0.66016,-2.34375 l -614.875,0 z"
     id="rect13"
     inkscape:connector-curvature="0" /><path
     style="fill:#d52b1e"
     d="M 227.86328,4.2223827e-4 C 227.55284,-0.00753772 227.27061,0.09610974 227.0293,0.39104724 c -0.64351,0.78651006 -0.928,1.28668746 -1.5,1.42968746 -0.57201,0.14301 -1.4308,0.5720213 -1.7168,1.6445313 -0.286,1.0724999 0.35809,3.0749843 -0.85742,3.1464843 -1.21551,0.0715 -1.85972,0.071334 -2.07422,0.7148438 -0.2145,0.6435 -0.0717,1.2871093 -0.92969,1.2871093 -0.858,0 -2.21671,-0.3569999 -2.57422,-0.5 -0.3575,-0.1429999 -0.64275,-1.4299531 -1.57226,-2.0019531 -0.92951,-0.57201 -1.28661,-0.4286662 -1.78711,0.2148438 -0.50051,0.6435 -2.07439,0.5717444 -1.35938,-0.5722657 0.715,-1.144 1.21662,-2.1449531 0.28711,-2.0019531 -0.92951,0.143 -1.50255,1.143 -2.28906,1 -0.78651,-0.143 -1.50179,-0.4273125 -2.2168,-0.5703125 -0.715,-0.143 -1.28695,-0.42951 -2.00195,0.5 -0.71501,0.9295 -2.50272,2.5030513 -2.57422,1.1445313 -0.0715,-1.35851 -0.14225,-1.7165413 -1.57226,-1.1445313 -1.43001,0.572 -3.14522,0.6428338 -3.57422,1.2148438 -0.429,0.572 -2.86074,1.8588537 -3.71875,0.7148437 -0.85801,-1.14401 -1.1431,-1.6450312 -2.28711,-1.1445312 -1.14401,0.50051 -2.5756,0.6437656 -3.4336,0.5722656 -0.85801,-0.0715 -2.14368,0.1431875 -2.42968,0.9296875 -0.286,0.78651 -0.42895,1.4305313 -2.00196,1.1445312 -1.57301,-0.2859999 -2.71783,0.07099 -3.36132,0.5 -0.64351,0.4290001 -1.28653,-0.2137443 -2.14454,0.072266 -0.85801,0.286 -0.78687,0.9295994 -1.85937,1.2871093 -1.07251,0.3574993 -1.9308,0.5006873 -2.2168,0.9296873 -0.286,0.42901 -1.14326,1.859197 -1.57226,0.929687 -0.42901,-0.92951 -0.64379,-1.215687 -2.2168,-0.929687 -1.57301,0.28601 -3.79008,0.357343 -4.43359,0.714844 -0.6435,0.357499 -1.35829,1.001275 -2.7168,0.572265 -1.35851,-0.429 -1.28711,0.715109 -1.28711,1.287109 0,0.572011 -0.57091,1.142491 -1.35742,1.5 -0.7865,0.3575 -3.57685,1.715954 -4.00586,2.001954 -0.429,0.286 -4.2174,2.575583 -5.00391,3.433593 -0.7865,0.858 -1.78847,2.716453 -2.64648,2.501953 -0.858,-0.21451 -1.07252,0.07134 -1.64453,0.714844 -0.572,0.64351 -2.21553,2.216297 -2.64453,2.716797 -0.42901,0.50051 -0.78611,1.572609 -1.78711,1.787109 -1.00101,0.214501 -1.7168,1.216641 -1.7168,1.931641 0,0.71501 0.0721,1.572521 -0.85742,2.144531 -0.92951,0.572 -2.50248,2.144188 -3.64649,1.929688 -1.14401,-0.2145 -3.14699,0.429531 -2.64648,1.144531 0.5005,0.71501 -0.0702,1.001875 -0.78516,1.359375 -0.715,0.35751 -1.14582,1.285735 -2.36133,0.427734 -1.21551,-0.85801 -1.49984,-1.143421 -2.21484,-0.857421 -0.71501,0.286 -1.50247,0.07073 -2.64648,-0.07227 -1.14401,-0.143 -1.93011,-0.0714 -1.78711,1.287109 0.143,1.35851 0.14374,2.073454 -1.57227,2.001954 -1.71601,-0.0715 -2.86116,-0.785313 -3.57617,-0.07031 -0.715,0.71501 -0.57116,1.143599 -0.28516,1.787109 0.286,0.6435 -0.28694,1.716297 -1.00195,2.216797 -0.715,0.50051 -3.1459,2.07261 -4.00391,2.28711 -0.858,0.2145 -3.14521,1.216718 -3.57422,1.574218 -0.429,0.35751 -1.43156,2.502553 -1.78906,3.289063 -0.3575,0.78651 -1.07253,1.715521 -1.64453,2.144531 -0.57201,0.429 -2.07184,1.143256 -2.21484,1.572266 -0.143,0.429 -1.07338,3.075662 -1.35938,3.576172 -0.286,0.5005 -0.78687,1.42951 -1.85937,0.5 -1.07251,-0.92951 -3.002478,-2.645297 -4.146488,-2.716797 -1.144,-0.0715 -5.792468,-0.214078 -6.292968,-0.142578 -0.50051,0.0715 -1.358365,0.284812 -2.359375,0.07031 -1.00101,-0.2145 -1.572521,-0.214922 -2.144531,0.142578 -0.572001,0.3575 -4.360475,2.861672 -4.646485,3.076172 -0.286,0.2145 -0.357422,0.928422 -0.357422,1.357422 0,0.42901 0.07005,1.144787 -0.501953,1.716797 -0.57201,0.572 -2.860052,3.432318 -3.289062,3.861328 -0.429,0.429 -1.357344,2.787375 -1.714844,3.359375 -0.3575,0.57201 -1.072953,2.217484 -1.501953,2.646484 -0.42901,0.42901 -1.930719,2.431219 -2.574219,2.574219 -0.64351,0.143 -2.288806,1.715354 -3.003906,1.214844 -0.715,-0.5005 -2.644453,0.143177 -3.001953,0.929687 -0.3575,0.78651 -0.714188,0.785588 -1.929688,0.642578 -1.2155,-0.143 -2.931484,-0.07082 -3.646484,0.429688 -0.715,0.5005 -2.146828,1.858531 -2.361328,2.144531 -0.2145,0.28601 -1.715032,1.71561 -2.644532,1.78711 -0.9295,0.0715 -6.364078,1.573453 -8.080078,1.501953 -1.716,-0.0715 -1.787609,-0.213068 -1.287109,-1.142578 0.5005,-0.92951 0.501609,-2.002219 0.287109,-2.574219 -0.2145,-0.572 -0.214578,-1.644709 0.357422,-2.574219 0.572,-0.92951 0.857656,-1.644875 -0.214844,-1.859375 -1.0725,-0.21451 -2.002384,-0.643166 -3.146484,0.214844 -1.144,0.858 -1.787219,1.358687 -3.074219,0.929687 -1.287,-0.42901 -3.71825,-1.358275 -4.21875,-1.072265 -0.5005,0.286 -2.073562,0.427135 -3.289062,-0.359375 -1.2155,-0.7865 -3.073563,-0.856657 -4.289063,-0.785156 -1.2155,0.0715 -2.933203,-0.287365 -4.720703,-0.859376 -1.7875,-0.572 -4.074828,-0.499234 -4.861328,-0.427734 -0.7865,0.0715 -3.217828,-0.429265 -3.861328,-0.572266 -0.6435,-0.143 -1.862406,-0.752382 -3.066406,-0.289062 -1.2035,0.46333 -2.723797,0.640625 -3.2792972,0.640625 -0.5554001,0 -2.3062313,0.04652 -2.7695313,0.185547 -0.4639,0.139 -0.3703563,0.276622 -0.9726563,0.04492 -0.6022999,-0.23167 -1.7617187,0.01172 -1.7617187,0.01172 C 11.266362,84.659385 18.6323,96.780151 25.875,109.01019 c 2.411,4.07039 4.957053,8.10578 7.251953,12.24023 0.5572,1.00387 0.989266,2.10859 1.509766,3.13477 1.1978,2.36123 2.813803,4.57438 4.095703,6.89843 0.4799,0.87002 0.75645,1.81105 1.15625,2.68164 0.6492,1.41228 1.4592,2.78156 2.125,4.19727 1.3568,2.88405 7.949578,17.35829 9.955078,21.67578 0,0 -0.08573,1.07644 0.07227,1.32813 l -0.855469,0.30664 c -0.1796,0.0881 -1.132088,2.43365 -1.367188,2.63672 -1.0079,0.87002 -1.49424,0.44771 -2.24414,1.86914 -0.353,0.67039 -0.521366,1.47094 -0.572266,2.22656 0,0.0337 0.967197,0.0231 1.154297,-0.0547 l 1.197266,1.58008 c -0.1539,0.47191 -0.515625,1.7793 -0.515625,1.7793 0,0 -0.596725,0.76892 -0.703125,0.97656 0,0 -2.37306,-0.0348 -2.69336,0.43945 -0.9484,-0.10983 -2.633447,-0.001 -2.685547,0.008 0,0 0.346438,1.3551 0.210938,1.42774 -0.2963,0.139 -1.095797,-0.16812 -1.529297,-0.15039 -0.2334,0.0681 -0.763016,1.64884 -1.041016,2.60351 l -1.201172,-0.0918 c 0,0 -0.979796,2.00091 -0.904296,2.67187 -0.2476,0.44331 -1.076928,0.86849 -1.548828,0.55274 0,0 -0.116344,3.48506 -0.402344,3.91406 -0.286,0.429 -0.07284,1.21672 0.285156,1.57422 0.3575,0.3575 0.499656,0.78507 0.285156,1.14257 -0.2145,0.3575 -0.4285,1.43029 -0.5,2.2168 -0.071,0.7865 0.787032,0.85844 1.144532,1.50196 0.3575,0.64349 -3.44e-4,2.00186 -0.214844,2.35937 -0.2145,0.3575 -0.429344,0.7151 -0.214844,1.28711 0.2145,0.572 -0.427734,2.64453 -0.427734,2.64453 0,0 0.427312,0.0722 0.570312,0.42969 0.143,0.3575 0.0013,1.71586 -0.427734,2.35937 -0.429,0.6435 0.07184,0.7866 0.714844,1.28711 0.6435,0.5005 0.215187,1.28696 -0.07031,2.00196 -0.286,0.71501 -4.22e-4,1.71706 0.142578,2.28906 0.143,0.57201 0.428735,1.21553 -0.07227,1.64453 -0.500501,0.42901 -0.286422,0.78499 0.142578,1.5 0.429,0.715 -0.07269,1.3593 -0.429688,1.7168 -0.3575,0.3575 3.44e-4,1.50187 0.214844,1.85937 0.2145,0.35751 0.142734,1.42876 -0.07227,2.07227 -0.2145,0.6435 0.375,2.19922 0.375,2.19922 -0.1699,0.98728 -0.389209,2.05721 -1.099609,2.81054 l 0.07813,0.52344 c -0.6601,1.69142 -0.525006,2.25724 -2.128906,3.01172 l -0.417969,0.82812 c 0.1676,0.37523 0.248616,0.60073 0.291015,1.02344 0.094,0.0389 0.04492,1.43555 0.04492,1.43555 -0.9855,-0.37009 -3.935547,-0.42774 -3.935546,-0.42774 -0.107,0.46046 0.02923,0.75714 -0.138672,1.21875 0.246,0.44673 1.430687,2.86756 1.617187,2.95508 1.2561,0.58802 2.721872,1.24149 3.201172,2.66406 0,0 -0.679656,1.72873 -0.660156,1.77735 0.3392,0.8437 0.645759,2.07184 1.130859,2.83203 0.3197,0.5005 0.881922,0.83003 1.044922,1.4375 0.2094,0.77907 -0.664978,1.65582 -0.455078,2.49609 0.095,0.38153 0.351859,0.75129 0.443359,1.13282 0.3141,1.3179 -1.010362,2.20635 0.398438,3.44531 1.0302,0.90605 2.049337,1.65587 3.023437,2.64258 0,0 0.461942,1.13183 1.001953,2.24609 l 455.60937,0 c 0.45183,-0.27119 0.94243,-0.9074 1.96875,-1.78711 1.50151,-1.28701 1.49268,-3.17219 1.17579,-4.26758 -0.31689,-1.09539 -1.017,-1.4535 -1.41797,-1.91797 -0.39983,-0.46447 -1.40116,-0.53686 -1.47266,-1.60937 -0.0715,-1.07251 0.21501,-1.50145 -0.5,-2.00195 -0.715,-0.50051 -0.92931,-1.86548 -0.46484,-2.54102 0.46389,-0.67611 -0.1786,-2.60631 -1.53711,-2.32031 -1.35851,0.286 -2.12997,0.71846 -2.56641,-0.0703 -0.43644,-0.78881 -2.46314,-1.33277 -3.05859,-2.20508 -0.59546,-0.87231 -1.7405,-1.1571 -2.3125,-0.8711 -0.57201,0.28601 -1.5721,0.71544 -2.28711,-0.14258 -0.71501,-0.858 -2.4308,-1.78745 -2.7168,-2.00195 -0.286,-0.2145 -2.07372,-0.71561 -2.57422,-0.78711 -0.5005,-0.0715 -1.78924,-1.50153 -2.71875,-1.64453 -0.92951,-0.143 -1.92987,-1.86013 -2.85937,-1.93164 -0.92951,-0.0715 -1.7873,-0.85802 -2.7168,-1.64453 -0.92951,-0.7865 -1.07184,-1.42842 -1.21484,-1.85742 -0.14301,-0.429 -0.85956,-1.28669 -1.78907,-1.42969 -0.92951,-0.143 -1.50026,-4.2e-4 -2.07226,0.14258 -0.57201,0.143 -1.14102,0.0211 -0.96484,-0.74024 0.17788,-0.76134 0.53515,-1.8339 0.53515,-2.1914 0,-0.35751 0.35852,-0.6448 -1,-1.2168 -1.35851,-0.57201 -1.64453,-0.2849 -1.64453,0.28711 0,0.572 -0.20192,0.96038 -0.99414,0.48047 -0.79337,-0.47991 -1.12715,-0.42461 -1.49609,0.44141 -0.37009,0.866 -0.1544,2.22392 -1.44141,1.79492 -1.28701,-0.429 -2.86048,-1.21544 -3.14648,-0.35742 -0.28601,0.858 -1.57287,1.00058 -2.35938,0.14257 -0.7865,-0.85801 -1.57414,-1.57234 -1.93164,-1.21484 -0.35751,0.3575 -0.92919,-0.0725 -1.42969,-0.64453 -0.50051,-0.572 -0.54249,-0.0109 -1.23633,0.17383 -0.69384,0.18476 -0.83611,0.75578 -1.76562,1.11328 -0.9295,0.35751 -2.92954,1.38692 -3.32422,1.51562 -0.39526,0.12928 -2.32533,0.91678 -2.61133,0.98828 -0.28601,0.0715 -1.14436,-0.001 -1.85937,-0.50195 -0.715,-0.5005 -1.90103,-0.63065 -2.02344,-0.95898 -0.12183,-0.32833 -0.55046,-2.04389 -1.98047,-1.40039 -1.43001,0.64351 -2.21664,0.71645 -2.93164,0.50195 -0.71501,-0.21451 -1.35887,0.0707 -1.85937,0.28516 -0.5005,0.21449 -1.85854,0.42884 -2.14454,0.71484 -0.286,0.28601 -1.24831,1.10939 -1.66015,0.41211 -0.41185,-0.69727 -1.48464,-0.69777 -2.05664,-0.19727 -0.57201,0.50051 -1.21663,0.64308 -1.93164,0.14258 -0.715,-0.50051 -1.50153,-1.50095 -1.64453,-2.50195 -0.143,-1.00101 0.0726,-2.78864 -1.35743,-2.93164 -1.43001,-0.143 -2.00186,-1.0721 -2.35937,-1.78711 -0.3575,-0.71501 -1.36041,-1.43157 -2.00391,-1.78906 -0.64351,-0.35751 -1.42883,-0.78593 -1.71484,-0.85743 -0.286,-0.0715 -1.07303,-0.28499 -1.14453,-1 -0.0715,-0.715 -1.14291,-1.07295 -1.35742,-1.50195 -0.2145,-0.429 -1.28806,-2.35972 -2.28907,-2.57422 -1.00101,-0.2145 -1.57311,-1.07279 -1.28711,-2.2168 0.286,-1.14401 0.21527,-3.0034 0.0723,-3.5039 -0.143,-0.50051 -0.1436,-1.14292 -0.78711,-1.35742 -0.6435,-0.21451 -1.21519,-0.43038 -1.42969,-0.85938 -0.2145,-0.429 -0.62908,-1.27209 -1.10156,-1.06445 -0.47247,0.20763 -2.33153,0.0641 -2.83203,0.20703 -0.5005,0.143 -1.29085,0.68843 -1.78906,1.0957 -0.49822,0.40727 -0.75642,1.66421 -1.55664,0.89258 -0.80023,-0.77164 -1.4444,-1.05825 -2.0879,-0.84375 -0.64351,0.2145 -1.85929,0.42969 -2.21679,0.42969 -0.3575,0 -1.00027,-0.14368 -1.57227,-0.42969 -0.57201,-0.286 -1.71552,-0.85768 -2.14453,-1.42969 -0.429,-0.572 -1.28822,-1.71518 -1.57422,-1.92968 -0.286,-0.2145 -1.07134,-0.35862 -1.71484,-0.28711 -0.64351,0.0715 -2.71824,0 -3.21875,0 -0.5005,0 -1.35735,-0.50035 -1.71485,-0.71485 -0.3575,-0.2145 -1.4307,-0.64334 -2.07421,-0.71484 -0.6435,-0.0715 -1.50128,-0.42995 -1.07227,-1.00195 0.429,-0.57201 0.64273,-1.2151 -0.0723,-1.78711 -0.715,-0.572 -1.64395,-1.78643 -2.50195,-1.35743 -0.85801,0.42901 -1.2866,0.85819 -1.78711,0.92969 -0.5005,0.0715 -0.5721,0.42858 -1.28711,0.14258 -0.715,-0.286 -1.14342,0.14207 -0.85742,0.64258 0.28601,0.5005 0.0701,1.21534 -0.85937,0.71484 -0.92951,-0.5005 -1.57176,-1.21536 -2.07227,-2.35937 -0.5005,-1.14401 -1.71621,-2.21552 -2.57422,-2.64453 -0.858,-0.429 -2.0023,-2.57533 -2.2168,-2.86133 -0.21451,-0.286 -0.92994,-1.50127 -1.50195,-1.07227 -0.572,0.42901 -1.50103,0.14385 -2.14453,-0.28515 -0.64351,-0.429 -1.2866,-6e-4 -1.78711,-0.78711 -0.5005,-0.7865 -0.93063,-3.50298 -1.93164,-4.14649 -1.00101,-0.6435 -1.35869,-1.14326 -0.92969,-1.57226 0.429,-0.429 0.71612,-0.85888 0.28711,-1.35938 -0.429,-0.5005 -0.85895,-1.78813 -1.00195,-2.43164 -0.14301,-0.6435 -0.42758,-1.21561 -1.14258,-1.28711 -0.71501,-0.0715 -2.21783,-0.71417 -2.86133,-0.28516 -0.64351,0.42901 -0.64241,0.71408 -1.35742,0.64258 -0.715,-0.0715 -0.78626,0.21552 -1.07226,0.64453 -0.28601,0.429 -0.28654,0.85743 -1.14454,0.85743 -0.85801,0 -1.43002,0.14361 -1.64453,0.78711 -0.2145,0.64351 -0.64428,1.43053 -1.71679,1.14453 -1.07251,-0.286 -3.50307,-0.42884 -3.78907,-0.71485 -0.286,-0.286 -1.07287,-1.36014 -1.85937,-1.43164 -0.78651,-0.0715 -2.50264,-0.85641 -2.93164,-1.85742 -0.42901,-1.00101 -0.78508,-1.5738 -1.14258,-1.7168 -0.35751,-0.14301 -0.6453,-0.57286 -0.7168,-1.35937 -0.0715,-0.7865 -0.49941,-1.85742 -1.35742,-1.85742 -0.85801,0 -2.36048,-0.42969 -2.64648,-0.42969 -0.286,0 -1.07254,-0.57211 -1.64454,-1.28711 -0.572,-0.71501 -1.42833,-1.50077 -2.21484,-1.57227 -0.78651,-0.0715 -1.0018,-0.0713 -1.7168,-0.71484 -0.71501,-0.64351 -2.21663,-1.14564 -2.93164,-1.43164 -0.715,-0.286 -4.21867,-0.35742 -4.57617,-0.35742 -0.3575,0 -0.78619,-0.0704 -1.42969,0.28711 -0.64351,0.3575 -1.07278,0.8575 -2.21679,0.5 -1.14401,-0.3575 -1.78677,-0.14233 -1.57227,0.42968 0.2145,0.57201 0.28447,1.28627 -0.14453,1.57227 -0.42901,0.286 -1.4291,2.14521 -2.28711,2.57422 -0.85801,0.429 -1.50221,0.21501 -2.07422,-0.5 -0.572,-0.715 -0.99983,-0.35861 -1.71484,-0.28711 -0.715,0.0715 -1.50222,0.14273 -2.07422,-0.57227 -0.57201,-0.71501 -1.5018,-1.28711 -2.2168,-1.28711 -0.71501,0 -1.43036,0.57185 -1.85937,0.71485 -0.429,0.143 -0.42842,-0.71434 -0.85742,-1.21485 -0.42901,-0.50049 -0.64411,0.14284 -0.78711,0.71485 -0.143,0.572 -1.00061,2.1457 -1.78711,0.42969 -0.78651,-1.71601 -1.35887,-2.00272 -1.85938,-2.07422 -0.5005,-0.0715 -1.50061,-0.57209 -2.28711,0.35742 -0.78651,0.92951 -2.00229,2.07369 -2.21679,0.92969 -0.2145,-1.14401 -0.57203,-1.93088 -1.64453,-1.85938 -1.07252,0.0715 -3.36067,0.28625 -4.57618,-1.07226 -1.21551,-1.35851 -2.57355,-3.64598 -3.78906,-4.14649 -1.21551,-0.5005 -1.57395,-1.00026 -1.00195,-1.57226 0.57201,-0.57201 1.43129,-3.14744 1.21679,-4.14844 -0.2145,-1.00101 -0.42867,-3.14623 -1.42968,-2.57422 -1.00101,0.572 -1.85998,0.3575 -2.64649,0 -0.7865,-0.35751 -1.71663,-0.78516 -2.43164,-0.78516 -0.715,0 -1.64429,-0.50178 -2.71679,-1.21679 -1.07252,-0.715 -1.92893,-2.21546 -1.85743,-3.00196 0.0715,-0.78651 0.35572,-2.50195 -0.71679,-2.50195 -1.07251,0 -0.92774,0.92877 -0.92774,1.57227 0,0.64351 -0.28619,2.43171 -0.92969,2.07421 -0.64351,-0.3575 -0.78821,-1.64521 -1.07421,-2.07421 -0.286,-0.429 -1.42885,-2.43072 -1.71485,-3.07422 -0.28601,-0.64351 -1.07194,-2.50391 -2.50195,-2.50391 -1.43001,0 -4.50477,-1.42934 -5.86328,-1.21484 -1.35851,0.2145 -3.9336,0.71583 -3.9336,-1.92969 0,-2.64552 -0.14241,-3.28966 -0.85742,-4.07617 -0.715,-0.7865 -0.85819,-1.93098 -0.92969,-3.14649 -0.0715,-1.21551 -0.42902,-5.64724 -1.64453,-5.71875 -1.21551,-0.0715 -1.57261,0.0706 -1.78711,-1.00195 -0.2145,-1.07251 -0.21544,-1.9302 -1.00195,-1.42969 -0.7865,0.5005 -1.07108,2.14437 -1.14258,2.85938 -0.0715,0.715 0.57207,2.07488 -2.00195,0.85937 -2.57402,-1.2155 -1.64503,-2.21816 -1.14453,-3.07617 0.5005,-0.85801 1.14453,-2.28661 1.14453,-2.78711 0,-0.5005 1.57301,-2.43156 0,-2.78906 -1.57301,-0.35751 -2.00314,-1.21613 -1.93164,-2.43164 0.0715,-1.21551 0.35757,-4.433 -2.00195,-3.64649 -2.35952,0.78651 -3.07338,-0.28533 -3.35938,-1.21484 -0.286,-0.92951 -2.07395,-5.720956 -1.50195,-6.292966 0.57201,-0.572 1.35826,-1.143953 1.07226,-2.001953 -0.286,-0.85801 -1.35955,-0.572022 -2.28906,-1.644531 -0.92951,-1.072501 -1.57285,-2.216631 -0.71484,-2.931641 0.858,-0.715 1.144,-1.214178 0,-2.429688 -1.14401,-1.21551 -1.42884,-3.361927 -0.0703,-4.148437 1.35851,-0.78651 3.50254,-1.929277 2.64454,-3.716797 -0.85801,-1.78751 -0.85733,-2.574396 0.42968,-3.503906 1.28701,-0.9295 2.00177,-1.572022 1.07227,-2.644531 -0.92951,-1.072501 -0.92935,-1.431397 -0.71484,-2.503907 0.21449,-1.0725 0.14255,-3.432162 -1.50196,-4.576172 -1.64451,-1.14401 -3.5748,-1.142599 -2.7168,-2.787109 0.85802,-1.64451 0.85743,-4.148615 0.85743,-5.078125 0,-0.92951 10e-4,-2.216719 -0.78516,-2.574219 -0.78651,-0.3575 -2.71738,-0.856334 -1.85937,-2.214844 0.858,-1.35851 0.42857,-2.861161 0.14257,-3.576171 -0.28601,-0.715 -0.49965,-1.858875 -0.28515,-2.359375 0.21451,-0.50051 -0.71628,-2.002553 0.42773,-2.789063 1.14401,-0.7865 1.6453,-1.642756 1.7168,-2.572265 0.0715,-0.9295 0.002,-1.900391 0.002,-1.900391 0,0 1.06965,-2.890459 2.28516,-3.605469 1.21551,-0.715 2.00152,-1.430297 2.14453,-2.216797 0.143,-0.78651 1.35946,-3.075427 1.00195,-4.648437 -0.3575,-1.57301 -0.42968,-3.002897 -0.42968,-4.003906 0,-1.001011 -0.57176,-2.788897 -1.07227,-3.503907 -0.5005,-0.715 -0.92978,-2.07363 -0.57227,-2.93164 0.3575,-0.85801 0.35708,-1.928688 0.14258,-2.929688 -0.2145,-1.00101 -1.07259,-2.717996 0.35742,-4.291015 1.43001,-1.573011 1.71661,-2.4310628 0.78711,-3.2890628 -0.92951,-0.85801 -1.64487,-2.7881306 -1.85937,-3.4316406 -0.2145,-0.6435 -1.28669,-2.072865 -1.42969,-2.859375 -0.143,-0.78651 -0.85837,-1.5026306 -1.85937,-1.93164061 -0.62571,-0.268305 -1.22291,-0.59238215 -1.74031,-0.60564875173 z"
     id="rect17"
     inkscape:connector-curvature="0" /></svg>